<svg xmlns="http://www.w3.org/2000/svg" xmlns:xlink="http://www.w3.org/1999/xlink" id="Layer_1" x="0px" y="0px" width="100%" viewBox="0 0 152 143" xml:space="preserve"><path fill="#101010" opacity="1.000000" stroke="none" d="M1.000000,117.000000  C1.000000,110.645599 1.000000,104.291206 1.358897,97.428207  C3.810214,95.761276 5.945657,94.673218 7.983603,93.425880  C10.264112,92.030067 12.456272,90.489914 14.861593,89.345749  C16.737320,93.775429 18.438335,97.871933 19.772745,102.011734  C13.900172,104.328888 13.213346,106.940819 16.738970,111.234169  C20.203854,115.453560 23.988358,117.991821 29.729435,114.978088  C32.625912,117.609474 35.253220,120.066231 37.561035,122.770660  C36.534473,125.147057 34.598877,127.910057 35.317806,129.302536  C40.339447,139.028793 45.387917,139.375656 52.400139,130.967407  C56.555035,132.217896 60.336349,133.424072 64.017525,134.981995  C61.944923,138.222504 59.972466,141.111252 58.000000,144.000000  C38.999992,144.000000 19.999983,144.000000 1.000000,144.000000  C1.000000,142.305664 1.000000,140.652313 1.393261,138.495346  C7.706131,138.028076 10.123342,133.212875 13.292825,129.529160  C13.786257,128.955673 13.858084,127.285210 13.395944,126.740837  C9.939552,122.669403 7.377145,117.366776 1.000000,117.000000 z"></path><path fill="#101211" opacity="1.000000" stroke="none" d="M134.000000,1.000000  C140.257095,1.000000 146.514175,1.000000 153.000000,1.000000  C153.000000,6.684834 153.000000,12.372708 152.661285,18.448914  C151.119339,18.292240 149.677216,17.029242 148.757233,17.335382  C145.871094,18.295799 142.782669,19.394251 140.569397,21.343803  C139.294785,22.466545 138.580856,25.798702 139.307632,27.335838  C141.834778,32.680813 145.653244,33.705387 151.056137,31.375427  C151.647995,31.120201 152.349411,31.119017 153.000000,31.000000  C153.000000,40.354229 153.000000,49.708458 152.658890,59.429684  C149.562637,58.863579 146.807510,57.930477 143.900452,56.651703  C140.432999,41.202843 132.994873,28.572231 121.190529,18.526697  C102.030594,2.221550 72.046219,-1.910327 51.429771,8.899495  C51.018494,8.700697 50.898140,8.501923 50.922215,7.775088  C50.961300,5.215020 50.980652,3.107510 51.000000,1.000000  C73.020897,1.000000 95.041786,1.000000 117.532608,1.407691  C118.294426,7.068694 122.556526,12.800780 126.103058,12.709756  C129.210709,12.629997 133.406784,7.437209 133.943008,2.975893  C134.021317,2.324391 133.983871,1.658977 134.000000,1.000000 z"></path><path fill="#101110" opacity="1.000000" stroke="none" d="M153.000000,114.000000  C153.000000,122.354233 153.000000,130.708466 152.654572,139.447418  C144.843369,136.674026 143.348770,137.180099 140.000000,144.000000  C117.312439,144.000000 94.624878,144.000000 71.372643,143.670746  C69.206039,140.576355 67.604111,137.811218 66.423096,135.031326  C70.147034,135.341217 73.443810,135.842896 76.754173,135.959808  C91.004532,136.463120 103.897102,132.069992 116.006233,125.196129  C118.982292,129.056381 121.854416,132.605331 124.919441,135.979004  C125.388763,136.495590 126.857773,136.519180 127.679199,136.235123  C134.382111,133.917175 136.460617,126.709381 132.112518,120.535385  C132.120667,116.120041 132.174454,112.163795 132.449524,108.075409  C133.057831,107.609795 133.444839,107.276337 134.170425,107.040878  C136.297806,108.551361 138.186905,109.855064 139.857788,111.395462  C146.451584,117.474281 144.708481,118.319740 153.000000,114.000000 z"></path><path fill="#0F1010" opacity="1.000000" stroke="none" d="M1.000000,34.000000  C1.000000,27.645601 1.000000,21.291203 1.342162,14.385696  C8.897775,10.652011 12.005327,6.370610 11.000000,1.000000  C19.354231,1.000000 27.708464,1.000000 36.458447,1.345693  C37.499134,3.886373 37.961224,6.158310 38.843029,8.253609  C39.643848,10.156462 40.901367,11.867110 41.665112,13.849399  C38.384178,16.409777 35.395683,18.783249 32.022778,21.095444  C30.200171,20.289841 28.412504,19.862583 27.392752,18.738611  C24.864704,15.952201 22.683847,16.607927 20.124006,18.590954  C14.322811,23.084951 14.074301,25.951532 19.336443,30.792482  C20.300732,31.679588 21.424866,32.392941 22.353386,33.525517  C20.382183,37.317120 18.532808,40.769707 16.290640,44.128387  C14.598628,43.689659 13.299409,43.344830 11.727682,42.818420  C9.636757,40.757893 7.818341,38.878944 5.860009,36.691505  C4.146729,35.588676 2.573365,34.794338 1.000000,34.000000 z"></path><path fill="#101110" opacity="1.000000" stroke="none" d="M12.000191,43.000000  C13.299409,43.344830 14.598628,43.689659 16.182693,44.504429  C15.695899,46.780754 14.541595,48.521011 14.216113,50.404495  C12.407825,60.868637 10.988552,71.374672 12.596601,81.958786  C8.492356,80.278549 4.746179,78.639275 1.000001,77.000000  C1.000000,69.979050 1.000000,62.958103 1.375282,55.454651  C7.903183,53.538315 12.598156,48.054321 12.000191,43.000000 z"></path><path fill="#101211" opacity="1.000000" stroke="none" d="M153.000000,72.000000  C153.000000,81.020897 153.000000,90.041786 152.663284,99.431641  C148.093994,96.282051 144.597687,97.077339 141.118118,101.183884  C139.912994,102.606155 137.529755,103.030197 135.792328,103.561737  C138.932297,94.141800 141.964554,85.070320 145.329163,75.904312  C148.107697,74.539856 150.553848,73.269928 153.000000,72.000000 z"></path><path fill="#131414" opacity="1.000000" stroke="none" d="M135.684631,103.910187  C137.529755,103.030197 139.912994,102.606155 141.118118,101.183884  C144.597687,97.077339 148.093994,96.282051 152.663284,99.900299  C153.000000,104.356903 153.000000,108.713799 153.000000,113.535355  C144.708481,118.319740 146.451584,117.474281 139.857788,111.395462  C138.186905,109.855064 136.297806,108.551361 134.242828,106.747482  C134.545990,105.540779 135.115311,104.725487 135.684631,103.910187 z"></path><path fill="#131313" opacity="1.000000" stroke="none" d="M1.000000,117.468536  C7.377145,117.366776 9.939552,122.669403 13.395944,126.740837  C13.858084,127.285210 13.786257,128.955673 13.292825,129.529160  C10.123342,133.212875 7.706131,138.028076 1.393261,137.995880  C1.000000,131.312347 1.000000,124.624710 1.000000,117.468536 z"></path><path fill="#131313" opacity="1.000000" stroke="none" d="M153.000000,30.539364  C152.349411,31.119017 151.647995,31.120201 151.056137,31.375427  C145.653244,33.705387 141.834778,32.680813 139.307632,27.335838  C138.580856,25.798702 139.294785,22.466545 140.569397,21.343803  C142.782669,19.394251 145.871094,18.295799 148.757233,17.335382  C149.677216,17.029242 151.119339,18.292240 152.661285,18.918621  C153.000000,22.692909 153.000000,26.385818 153.000000,30.539364 z"></path><path fill="#141615" opacity="1.000000" stroke="none" d="M1.000001,77.468399  C4.746179,78.639275 8.492356,80.278549 12.750531,82.286720  C13.737311,84.774597 14.212094,86.893585 14.686878,89.012573  C12.456272,90.489914 10.264112,92.030067 7.983603,93.425880  C5.945657,94.673218 3.810214,95.761276 1.358897,96.959808  C1.000000,90.645599 1.000000,84.291206 1.000001,77.468399 z"></path><path fill="#131313" opacity="1.000000" stroke="none" d="M11.727682,42.818420  C12.598156,48.054321 7.903183,53.538315 1.375282,54.986069  C1.000000,48.978848 1.000000,42.957695 1.363528,36.501961  C3.151345,36.378254 4.575634,36.689125 5.999924,37.000000  C7.818341,38.878944 9.636757,40.757893 11.727682,42.818420 z"></path><path fill="#131313" opacity="1.000000" stroke="none" d="M133.533142,1.000000  C133.983871,1.658977 134.021317,2.324391 133.943008,2.975893  C133.406784,7.437209 129.210709,12.629997 126.103058,12.709756  C122.556526,12.800780 118.294426,7.068694 118.001266,1.407691  C123.022095,1.000000 128.044189,1.000000 133.533142,1.000000 z"></path><path fill="#141514" opacity="1.000000" stroke="none" d="M153.000000,71.539368  C150.553848,73.269928 148.107697,74.539856 145.285828,75.439934  C144.624191,69.045853 144.338287,63.021618 144.052368,56.997379  C146.807510,57.930477 149.562637,58.863579 152.658890,59.898338  C153.000000,63.692909 153.000000,67.385818 153.000000,71.539368 z"></path><path fill="#191A16" opacity="1.000000" stroke="none" d="M41.957550,13.662491  C40.901367,11.867110 39.643848,10.156462 38.843029,8.253609  C37.961224,6.158310 37.499134,3.886373 36.927101,1.345693  C41.356899,1.000000 45.713799,1.000000 50.535351,1.000000  C50.980652,3.107510 50.961300,5.215020 50.602654,7.749228  C49.652908,7.981568 49.042458,7.787211 48.243378,7.309407  C47.253292,6.646971 46.451836,6.267981 45.650375,5.888991  C45.488605,6.253932 45.326836,6.618873 45.165062,6.983813  C46.076427,7.358608 46.987789,7.733402 47.900799,8.448343  C46.816921,10.174830 45.731396,11.561170 43.966003,13.096977  C42.843273,13.385127 42.400414,13.523808 41.957550,13.662491 z"></path><path fill="#131313" opacity="1.000000" stroke="none" d="M10.513435,1.000000  C12.005327,6.370610 8.897775,10.652011 1.342162,13.917294  C1.000000,9.757789 1.000000,5.515577 1.000000,1.000000  C4.003711,1.000000 7.015291,1.000000 10.513435,1.000000 z"></path><path fill="#131313" opacity="1.000000" stroke="none" d="M140.476654,144.000000  C143.348770,137.180099 144.843369,136.674026 152.654572,139.916077  C153.000000,141.296707 153.000000,142.593399 153.000000,144.000000  C148.984833,144.000000 144.969070,144.000000 140.476654,144.000000 z"></path><path fill="#131615" opacity="1.000000" stroke="none" d="M66.002190,135.046066  C67.604111,137.811218 69.206039,140.576355 70.903984,143.670746  C66.975456,144.000000 62.950912,144.000000 58.463188,144.000000  C59.972466,141.111252 61.944923,138.222504 64.342133,134.994598  C65.178658,134.785660 65.590424,134.915863 66.002190,135.046066 z"></path><path fill="#101110" opacity="1.000000" stroke="none" d="M5.860009,36.691505  C4.575634,36.689125 3.151345,36.378254 1.363528,36.033691  C1.000000,35.555553 1.000000,35.111111 1.000000,34.333332  C2.573365,34.794338 4.146729,35.588676 5.860009,36.691505 z"></path><path fill="#279D64" opacity="1.000000" stroke="none" d="M66.423096,135.031326  C65.590424,134.915863 65.178658,134.785660 64.442276,134.642853  C60.336349,133.424072 56.555035,132.217896 52.150124,130.738220  C46.977863,127.817490 42.429192,125.170235 37.880524,122.522987  C35.253220,120.066231 32.625912,117.609474 29.572599,114.665909  C26.144176,110.108887 23.141764,106.038666 20.139351,101.968445  C18.438335,97.871933 16.737320,93.775429 14.861591,89.345749  C14.212094,86.893585 13.737311,84.774597 13.108599,82.327667  C10.988552,71.374672 12.407825,60.868637 14.216113,50.404495  C14.541595,48.521011 15.695899,46.780754 16.575487,44.598331  C18.532808,40.769707 20.382183,37.317120 22.590530,33.311699  C26.102062,28.891481 29.254625,25.024101 32.407188,21.156721  C35.395683,18.783249 38.384178,16.409777 41.665112,13.849398  C42.400414,13.523808 42.843273,13.385127 43.584076,13.524565  C42.791710,16.745764 39.938396,20.963730 40.961491,22.378551  C43.437107,25.802031 47.720303,27.918394 51.093796,30.821228  C47.607372,34.820446 44.302052,38.560066 40.983650,42.453140  C40.970573,42.606598 40.788383,42.854958 40.568039,43.084694  C39.902546,44.237350 39.457390,45.160278 38.999416,46.039177  C38.986595,45.995155 39.074615,45.969421 38.815441,46.198265  C37.264957,48.724354 35.637238,50.897213 34.734673,53.338200  C26.224213,76.354736 36.584511,101.284523 59.140495,112.147888  C60.949886,113.173744 62.562355,113.920601 64.599907,114.711212  C72.456734,114.985420 79.952248,115.932388 87.305206,115.277832  C98.243324,114.304131 106.393913,107.293701 114.656639,100.955444  C115.524071,104.322502 116.203278,107.305809 116.908623,110.282928  C117.818863,114.124840 118.750008,117.961807 119.386154,121.998116  C118.055229,123.072723 117.010292,123.950111 115.965347,124.827499  C103.897102,132.069992 91.004532,136.463120 76.754173,135.959808  C73.443810,135.842896 70.147034,135.341217 66.423096,135.031326 z"></path><path fill="#141715" opacity="1.000000" stroke="none" d="M37.561035,122.770660  C42.429192,125.170235 46.977863,127.817490 51.776550,130.693909  C45.387917,139.375656 40.339447,139.028793 35.317806,129.302536  C34.598877,127.910057 36.534473,125.147057 37.561035,122.770660 z"></path><path fill="#141A17" opacity="1.000000" stroke="none" d="M19.772743,102.011734  C23.141764,106.038666 26.144176,110.108887 29.303427,114.491287  C23.988358,117.991821 20.203854,115.453560 16.738970,111.234169  C13.213346,106.940819 13.900172,104.328888 19.772743,102.011734 z"></path><path fill="#E4B22D" opacity="1.000000" stroke="none" d="M51.274902,30.561630  C47.720303,27.918394 43.437107,25.802031 40.961491,22.378551  C39.938396,20.963730 42.791710,16.745764 44.263939,13.375097  C45.731396,11.561170 46.816921,10.174830 48.034225,8.319729  C48.166008,7.850967 48.432007,7.592854 48.432007,7.592854  C49.042458,7.787211 49.652908,7.981568 50.582916,8.201786  C50.898140,8.501923 51.018494,8.700697 51.587753,9.249882  C52.628948,10.341870 53.249493,11.405063 54.079288,11.606566  C58.069523,12.575535 61.386219,14.343592 64.545914,17.159801  C67.330246,19.641443 70.642899,19.160929 71.726440,14.054832  C74.948723,16.703733 76.261703,19.389908 75.389549,23.383286  C75.500366,26.999895 75.645950,30.220343 75.798401,33.592480  C86.800911,40.261536 99.356232,35.790478 111.596832,37.602531  C120.781570,36.407513 129.970734,39.497585 128.684967,43.718155  C127.723640,43.831753 126.636131,43.960258 125.925980,44.044174  C124.845383,47.467960 123.815018,50.732571 122.484589,54.171913  C121.007469,54.882412 119.048607,55.168644 118.784607,55.995819  C117.419121,60.274132 113.105972,60.020527 110.262177,61.201717  C104.020882,63.794071 101.245369,68.625084 103.878937,74.776093  C104.891945,77.142097 105.569138,79.651894 106.284683,81.758583  C110.878120,79.768227 108.909126,85.317802 112.586800,85.901169  C114.123665,85.763451 115.948738,84.993805 115.454193,81.142715  C114.821449,76.215492 120.121788,70.377098 125.086861,70.342346  C127.526642,83.222351 129.877441,95.714951 132.228226,108.207558  C132.174454,112.163795 132.120667,116.120041 132.035355,120.867630  C130.211258,121.267578 128.418701,120.876175 125.243813,120.182938  C124.698425,122.727661 124.019928,125.893425 123.141174,129.993622  C121.775284,126.767822 120.723724,124.284363 119.672150,121.800896  C118.750008,117.961807 117.818863,114.124840 116.908623,110.282928  C116.203278,107.305809 115.524071,104.322502 114.654907,100.657944  C111.995262,97.020958 109.513954,94.067986 106.693977,91.170456  C105.715118,92.516418 105.074928,93.806931 104.165535,95.248016  C103.254959,95.911034 102.613586,96.423477 101.749695,96.892212  C101.527184,96.848511 101.076569,96.899696 100.662537,96.796532  C99.975212,96.772301 99.701927,96.851234 99.478546,96.882172  C99.528458,96.834175 99.453079,96.718010 99.603638,96.710449  C99.754196,96.702888 99.741692,96.401642 99.751053,96.371368  C99.760422,96.341087 99.746506,96.279251 99.667343,95.899185  C97.523895,93.284538 95.459595,91.049950 93.303467,88.778183  C93.211632,88.740997 93.131905,88.922386 93.215210,88.563408  C92.886482,88.093590 92.474449,87.982758 92.324310,87.865967  C92.583015,87.685410 92.579826,87.510803 92.575340,87.029572  C92.042145,86.234703 91.510262,85.746460 90.978378,85.258209  C90.826645,85.918663 90.674904,86.579117 90.218811,87.379417  C89.696075,88.358101 89.477699,89.196938 89.193542,90.266838  C89.127777,90.497902 89.239037,90.965332 89.325882,91.272156  C89.544701,92.382950 89.676682,93.186920 89.489899,94.068848  C88.114273,94.429787 87.057404,94.712753 85.870102,94.739426  C84.952728,94.103424 84.165779,93.723724 83.378838,93.344017  C83.185806,93.620079 82.992775,93.896141 82.799736,94.172203  C83.526314,95.117813 84.252892,96.063416 85.247772,97.154106  C87.333473,96.873314 89.150871,96.447426 90.890381,96.237762  C90.789413,96.951096 90.766335,97.448196 90.743256,97.945305  C91.007431,97.915558 91.271614,97.885803 91.535797,97.856056  C91.363213,97.234200 91.190628,96.612343 91.018921,95.793945  C91.019806,95.597412 91.014870,95.204369 91.381714,95.133316  C92.495346,95.050636 93.242119,95.039009 94.157639,95.338013  C94.441856,99.042229 94.557335,102.435822 94.415031,105.978210  C93.439606,106.391663 92.721977,106.656334 91.903366,106.653999  C91.684410,104.814850 91.566429,103.242699 91.319611,99.953773  C89.196518,103.350685 87.680107,105.776909 86.133713,108.167671  C86.103722,108.132210 86.193771,108.154953 85.818176,108.105133  C83.656433,106.589882 81.870270,105.124443 79.126053,102.872971  C77.106415,103.646904 74.033272,104.824539 70.938263,105.706329  C70.891724,105.016884 70.867058,104.623291 70.902817,103.841782  C70.963234,100.798180 70.963234,98.142509 70.963234,95.486832  C70.466507,95.502144 69.969788,95.517448 69.473061,95.532753  C69.393318,96.949509 69.313568,98.366264 69.151924,101.237907  C67.968407,98.350815 67.365211,96.879395 66.400932,94.527107  C65.305794,95.880905 64.254318,96.633194 64.014038,97.589333  C63.479298,99.717239 63.350365,101.947128 62.974316,104.454208  C61.948990,105.506691 61.005383,106.240425 59.930183,106.590897  C58.340118,98.007721 56.881638,89.807800 55.423157,81.607887  C55.860798,81.501549 56.298435,81.395210 56.736073,81.288872  C55.447906,80.718246 54.159737,80.147614 52.871567,79.576988  C53.217045,79.315636 53.562519,79.054291 53.907993,78.792938  C52.933804,76.786217 51.784737,74.841835 51.040207,72.753250  C50.433586,71.051529 49.508312,67.965797 50.101757,67.572586  C54.548496,64.626190 51.881149,60.535519 52.666134,56.986229  C49.946388,56.205479 47.429047,55.821205 45.226955,54.774014  C41.625542,53.061378 37.849361,51.179321 39.074615,45.969421  C39.074615,45.969421 38.986595,45.995155 39.299496,45.896179  C40.004391,44.816456 40.396389,43.835709 40.788383,42.854958  C40.788383,42.854958 40.970573,42.606598 41.297916,42.436897  C43.568184,43.691124 45.850212,43.482033 46.224819,41.261200  C47.114090,35.989235 50.542686,36.678928 54.194279,36.878971  C55.207241,36.934464 56.788216,36.142017 57.210823,35.292168  C57.898983,33.908295 53.322807,30.379164 51.274902,30.561630 M80.822464,99.160141  C80.887321,99.110565 80.952187,99.060989 81.079964,98.965157  C81.079964,98.965157 80.989014,98.983734 80.822464,99.160141 M87.503235,91.523926  C87.503235,91.523926 87.490829,91.487099 87.503235,91.523926 z"></path><path fill="#299D64" opacity="1.000000" stroke="none" d="M75.424324,22.987127  C76.261703,19.389908 74.948723,16.703733 71.726440,14.054832  C70.642899,19.160929 67.330246,19.641443 64.545914,17.159801  C61.386219,14.343592 58.069523,12.575535 54.079288,11.606566  C53.249493,11.405063 52.628948,10.341870 51.753986,9.325407  C72.046219,-1.910327 102.030594,2.221550 121.190529,18.526697  C132.994873,28.572231 140.432999,41.202843 143.900452,56.651703  C144.338287,63.021618 144.624191,69.045853 144.953461,75.534470  C141.964554,85.070320 138.932297,94.141800 135.792328,103.561737  C135.115311,104.725487 134.545990,105.540779 133.904266,106.649475  C133.444839,107.276337 133.057831,107.609795 132.449524,108.075409  C129.877441,95.714951 127.526642,83.222351 125.096809,69.896683  C124.273407,64.041473 123.529037,59.019325 122.784660,53.997177  C123.815018,50.732571 124.845383,47.467960 125.925980,44.044174  C126.636131,43.960258 127.723640,43.831753 128.684967,43.718155  C129.970734,39.497585 120.781570,36.407513 111.444946,37.313644  C109.736763,35.504120 108.722313,33.924213 107.330536,32.819817  C97.990776,25.408611 87.321396,22.170990 75.424324,22.987127 z"></path><path fill="#191815" opacity="1.000000" stroke="none" d="M119.386162,121.998116  C120.723724,124.284363 121.775284,126.767822 123.141174,129.993622  C124.019928,125.893425 124.698425,122.727661 125.243813,120.182938  C128.418701,120.876175 130.211258,121.267578 132.080978,121.326736  C136.460617,126.709381 134.382111,133.917175 127.679199,136.235123  C126.857773,136.519180 125.388763,136.495590 124.919441,135.979004  C121.854416,132.605331 118.982292,129.056381 116.006226,125.196121  C117.010292,123.950111 118.055229,123.072723 119.386162,121.998116 z"></path><path fill="#141615" opacity="1.000000" stroke="none" d="M32.022778,21.095444  C29.254625,25.024101 26.102062,28.891481 22.712357,32.972679  C21.424866,32.392941 20.300732,31.679588 19.336443,30.792482  C14.074301,25.951532 14.322811,23.084951 20.124006,18.590954  C22.683847,16.607927 24.864704,15.952201 27.392752,18.738611  C28.412504,19.862583 30.200171,20.289841 32.022778,21.095444 z"></path><path fill="#E4B22D" opacity="1.000000" stroke="none" d="M48.032578,7.979582  C46.987789,7.733402 46.076427,7.358608 45.165062,6.983813  C45.326836,6.618873 45.488605,6.253932 45.650375,5.888991  C46.451836,6.267981 47.253292,6.646971 48.243378,7.309407  C48.432007,7.592854 48.166008,7.850967 48.032578,7.979582 z"></path><path fill="#147538" opacity="1.000000" stroke="none" d="M38.815441,46.198265  C37.849361,51.179321 41.625542,53.061378 45.226955,54.774014  C47.429047,55.821205 49.946388,56.205479 52.666134,56.986229  C51.881149,60.535519 54.548496,64.626190 50.101757,67.572586  C49.508312,67.965797 50.433586,71.051529 51.040207,72.753250  C51.784737,74.841835 52.933804,76.786217 53.907993,78.792938  C53.562519,79.054291 53.217045,79.315636 52.871567,79.576988  C54.159737,80.147614 55.447906,80.718246 56.736073,81.288872  C56.298435,81.395210 55.860798,81.501549 55.423157,81.607887  C56.881638,89.807800 58.340118,98.007721 59.870255,106.947540  C59.609127,109.081268 59.276344,110.475075 58.943565,111.868889  C36.584511,101.284523 26.224213,76.354736 34.734673,53.338200  C35.637238,50.897213 37.264957,48.724354 38.815441,46.198265 z"></path><path fill="#237A38" opacity="1.000000" stroke="none" d="M101.972214,96.935913  C102.613586,96.423477 103.254959,95.911034 104.477203,95.312851  C106.653336,96.389938 108.248573,97.552757 109.843819,98.715576  C110.163086,98.468086 110.482353,98.220596 110.801620,97.973106  C109.545296,95.687073 108.288971,93.401047 107.032646,91.115013  C109.513954,94.067986 111.995262,97.020958 114.478302,100.271446  C106.393913,107.293701 98.243324,114.304131 87.305206,115.277832  C79.952248,115.932388 72.456734,114.985420 64.581955,114.454910  C64.651695,113.644600 65.164467,113.134354 65.954521,112.823578  C66.793289,111.968933 67.354767,110.914810 68.344406,109.853134  C69.057533,109.828354 69.342491,109.811142 69.616776,110.123291  C69.569656,110.890381 69.533203,111.328117 69.419327,112.001442  C69.895851,112.463470 70.449791,112.689911 71.318787,112.777832  C73.402321,111.054192 75.170807,109.469063 77.313141,107.905945  C80.433479,111.343193 83.245476,112.303040 86.193771,108.154953  C86.193771,108.154953 86.103722,108.132210 86.480545,108.019791  C88.573029,107.578575 90.288689,107.249794 92.004349,106.921005  C92.721977,106.656334 93.439606,106.391663 94.703903,105.923935  C95.811729,105.223282 96.372902,104.725700 97.312996,104.217346  C98.110443,103.144318 98.528961,102.082039 99.209412,101.023499  C99.645943,101.023125 99.820534,101.019020 100.301010,100.975342  C101.061996,99.602470 101.517105,98.269188 101.972214,96.935913 z"></path><path fill="#247C39" opacity="1.000000" stroke="none" d="M51.093796,30.821228  C53.322807,30.379164 57.898983,33.908295 57.210823,35.292168  C56.788216,36.142017 55.207241,36.934464 54.194279,36.878971  C50.542686,36.678928 47.114090,35.989235 46.224819,41.261200  C45.850212,43.482033 43.568184,43.691124 41.310997,42.283440  C44.302052,38.560066 47.607372,34.820446 51.093796,30.821228 z"></path><path fill="#AAA231" opacity="1.000000" stroke="none" d="M65.677238,112.624100  C65.164467,113.134354 64.651695,113.644600 64.156876,114.411156  C62.562355,113.920601 60.949886,113.173744 59.140491,112.147888  C59.276344,110.475075 59.609127,109.081268 60.001839,107.330811  C61.005383,106.240425 61.948990,105.506691 63.197529,104.714340  C64.227386,107.311852 64.952316,109.967972 65.677238,112.624100 z"></path><path fill="#147538" opacity="1.000000" stroke="none" d="M40.568039,43.084694  C40.396389,43.835709 40.004391,44.816456 39.312317,45.940205  C39.457390,45.160278 39.902546,44.237350 40.568039,43.084694 z"></path><path fill="#187637" opacity="1.000000" stroke="none" d="M122.484589,54.171913  C123.529037,59.019325 124.273407,64.041473 125.007828,69.509277  C120.121788,70.377098 114.821449,76.215492 115.454193,81.142715  C115.948738,84.993805 114.123665,85.763451 112.586800,85.901169  C108.909126,85.317802 110.878120,79.768227 106.284683,81.758583  C105.569138,79.651894 104.891945,77.142097 103.878937,74.776093  C101.245369,68.625084 104.020882,63.794071 110.262177,61.201717  C113.105972,60.020527 117.419121,60.274132 118.784607,55.995819  C119.048607,55.168644 121.007469,54.882412 122.484589,54.171913 z"></path><path fill="#167638" opacity="1.000000" stroke="none" d="M75.389549,23.383286  C87.321396,22.170990 97.990776,25.408611 107.330536,32.819817  C108.722313,33.924213 109.736763,35.504120 111.077652,37.152931  C99.356232,35.790478 86.800911,40.261536 75.798401,33.592480  C75.645950,30.220343 75.500366,26.999895 75.389549,23.383286 z"></path><path fill="#CBAB2E" opacity="1.000000" stroke="none" d="M65.954521,112.823578  C64.952316,109.967972 64.227386,107.311852 63.279247,104.395584  C63.350365,101.947128 63.479298,99.717239 64.014038,97.589333  C64.254318,96.633194 65.305794,95.880905 66.400932,94.527107  C67.365211,96.879395 67.968407,98.350815 69.151924,101.237907  C69.313568,98.366264 69.393318,96.949509 69.473061,95.532753  C69.969788,95.517448 70.466507,95.502144 70.963234,95.486832  C70.963234,98.142509 70.963234,100.798180 70.675751,103.855042  C69.468819,103.957924 68.549370,103.659630 67.552895,103.336349  C67.686806,105.740875 67.801521,107.800789 67.916245,109.860695  C67.354767,110.914810 66.793289,111.968933 65.954521,112.823578 z"></path><path fill="#DEB02D" opacity="1.000000" stroke="none" d="M85.818176,108.105133  C83.245476,112.303040 80.433479,111.343193 77.012268,107.759888  C72.690529,106.331444 71.511467,108.431847 70.788750,111.581497  C70.195000,111.706062 69.845871,111.735962 69.496750,111.765854  C69.533203,111.328117 69.569656,110.890381 69.750153,109.870247  C70.249512,108.192627 70.604828,107.097397 70.960136,106.002174  C74.033272,104.824539 77.106415,103.646904 79.126053,102.872971  C81.870270,105.124443 83.656433,106.589882 85.818176,108.105133 z"></path><path fill="#428335" opacity="1.000000" stroke="none" d="M99.995125,101.014923  C99.820534,101.019020 99.645943,101.023125 98.967072,101.223236  C97.953217,102.355537 97.443642,103.291824 96.934067,104.228111  C96.372902,104.725700 95.811729,105.223282 94.961693,105.775146  C94.557335,102.435822 94.441856,99.042229 94.073616,94.995369  C92.293587,93.216515 90.766312,92.090919 89.239037,90.965332  C89.239037,90.965332 89.127777,90.497902 89.561447,90.255402  C91.128510,89.613716 92.261902,89.214539 93.395294,88.815361  C95.459595,91.049950 97.523895,93.284538 99.466522,95.860718  C99.193024,96.313408 99.041191,96.424500 98.889359,96.535599  C99.173470,96.490944 99.457581,96.446297 99.741692,96.401642  C99.741692,96.401642 99.754196,96.702888 99.539703,97.074265  C99.548515,98.635399 99.771820,99.825157 99.995125,101.014923 z"></path><path fill="#428335" opacity="1.000000" stroke="none" d="M106.693977,91.170456  C108.288971,93.401047 109.545296,95.687073 110.801620,97.973106  C110.482353,98.220596 110.163086,98.468086 109.843819,98.715576  C108.248573,97.552757 106.653336,96.389938 104.746414,95.162277  C105.074928,93.806931 105.715118,92.516418 106.693977,91.170456 z"></path><path fill="#D9AF2D" opacity="1.000000" stroke="none" d="M91.903366,106.654007  C90.288689,107.249794 88.573029,107.578575 86.510536,108.055252  C87.680107,105.776909 89.196518,103.350685 91.319611,99.953773  C91.566429,103.242699 91.684410,104.814850 91.903366,106.654007 z"></path><path fill="#959B31" opacity="1.000000" stroke="none" d="M70.938263,105.706329  C70.604828,107.097397 70.249512,108.192627 69.760826,109.540894  C69.342491,109.811142 69.057533,109.828354 68.344406,109.853134  C67.801521,107.800789 67.686806,105.740875 67.552895,103.336349  C68.549370,103.659630 69.468819,103.957924 70.615326,104.242958  C70.867058,104.623291 70.891724,105.016884 70.938263,105.706329 z"></path><path fill="#548734" opacity="1.000000" stroke="none" d="M89.325882,91.272156  C90.766312,92.090919 92.293587,93.216515 93.904877,94.684738  C93.242119,95.039009 92.495346,95.050636 91.131622,94.983917  C90.279335,94.600685 90.043999,94.295784 89.808655,93.990891  C89.676682,93.186920 89.544701,92.382950 89.325882,91.272156 z"></path><path fill="#DEB02D" opacity="1.000000" stroke="none" d="M84.979469,97.009018  C84.252892,96.063416 83.526314,95.117813 82.799736,94.172203  C82.992775,93.896141 83.185806,93.620079 83.378838,93.344017  C84.165779,93.723724 84.952728,94.103424 85.786636,95.011681  C85.548897,96.029831 85.264183,96.519424 84.979469,97.009018 z"></path><path fill="#D9AF2D" opacity="1.000000" stroke="none" d="M85.247772,97.154106  C85.264183,96.519424 85.548897,96.029831 85.917076,95.267975  C87.057404,94.712753 88.114273,94.429787 89.489899,94.068848  C90.043999,94.295784 90.279335,94.600685 90.764771,95.054977  C91.014870,95.204369 91.019806,95.597412 91.006516,95.801147  C90.993233,96.004883 90.968277,96.021545 90.968277,96.021545  C89.150871,96.447426 87.333473,96.873314 85.247772,97.154106 z"></path><path fill="#548734" opacity="1.000000" stroke="none" d="M100.301010,100.975342  C99.771820,99.825157 99.548515,98.635399 99.389145,97.081818  C99.453079,96.718010 99.528458,96.834175 99.689796,96.862724  C100.259613,96.894081 100.668091,96.896889 101.076569,96.899696  C101.076569,96.899696 101.527184,96.848511 101.749695,96.892212  C101.517105,98.269188 101.061996,99.602470 100.301010,100.975342 z"></path><path fill="#548734" opacity="1.000000" stroke="none" d="M93.303467,88.778183  C92.261902,89.214539 91.128510,89.613716 89.627213,90.024338  C89.477699,89.196938 89.696075,88.358101 90.463585,87.466278  C91.534027,87.387604 92.055336,87.361900 92.576645,87.336197  C92.579826,87.510803 92.583015,87.685410 92.481560,88.061691  C92.628578,88.483040 92.880241,88.702713 93.131905,88.922386  C93.131905,88.922386 93.211632,88.740997 93.303467,88.778183 z"></path><path fill="#D9AF2D" opacity="1.000000" stroke="none" d="M91.005638,95.997681  C91.190628,96.612343 91.363213,97.234200 91.535797,97.856056  C91.271614,97.885803 91.007431,97.915558 90.743256,97.945305  C90.766335,97.448196 90.789413,96.951096 90.890381,96.237762  C90.968277,96.021545 90.993233,96.004883 91.005638,95.997681 z"></path><path fill="#428335" opacity="1.000000" stroke="none" d="M92.575340,87.029572  C92.055336,87.361900 91.534027,87.387604 90.767944,87.326431  C90.674904,86.579117 90.826645,85.918663 90.978378,85.258209  C91.510262,85.746460 92.042145,86.234703 92.575340,87.029572 z"></path><path fill="#DEB02D" opacity="1.000000" stroke="none" d="M81.017044,99.011414  C80.952187,99.060989 80.887321,99.110565 80.911606,99.079926  C81.000748,98.999702 81.017044,99.011406 81.017044,99.011414 z"></path><path fill="#548734" opacity="1.000000" stroke="none" d="M99.751053,96.371368  C99.457581,96.446297 99.173470,96.490944 98.889359,96.535599  C99.041191,96.424500 99.193024,96.313408 99.545685,96.240784  C99.746506,96.279251 99.760422,96.341087 99.751053,96.371368 z"></path><path fill="#237A38" opacity="1.000000" stroke="none" d="M100.662537,96.796532  C100.668091,96.896889 100.259613,96.894081 99.639885,96.910721  C99.701927,96.851234 99.975212,96.772301 100.662537,96.796532 z"></path><path fill="#D9AF2D" opacity="1.000000" stroke="none" d="M87.497032,91.505508  C87.490829,91.487099 87.503235,91.523926 87.497032,91.505508 z"></path><path fill="#428335" opacity="1.000000" stroke="none" d="M93.215210,88.563408  C92.880241,88.702713 92.628578,88.483040 92.219666,88.067642  C92.474449,87.982758 92.886482,88.093590 93.215210,88.563408 z"></path><path fill="#DEB02D" opacity="1.000000" stroke="none" d="M80.994881,98.991714  C80.989014,98.983734 81.079964,98.965157 81.048508,98.988281  C81.017044,99.011406 81.000748,98.999702 80.994881,98.991714 z"></path><path fill="#E4B22D" opacity="1.000000" stroke="none" d="M71.033379,111.486832  C71.511467,108.431847 72.690529,106.331444 76.638412,107.737869  C75.170807,109.469063 73.402321,111.054192 71.327179,112.420471  C71.024803,111.963364 71.029091,111.725098 71.033379,111.486832 z"></path><path fill="#959B31" opacity="1.000000" stroke="none" d="M70.788750,111.581497  C71.029091,111.725098 71.024803,111.963364 71.012123,112.558990  C70.449791,112.689911 69.895851,112.463470 69.419327,112.001442  C69.845871,111.735962 70.195000,111.706062 70.788750,111.581497 z"></path><path fill="#9F9E30" opacity="1.000000" stroke="none" d="M97.312996,104.217346  C97.443642,103.291824 97.953217,102.355537 98.705139,101.219513  C98.528961,102.082039 98.110443,103.144318 97.312996,104.217346 z"></path></svg>