<svg xmlns="http://www.w3.org/2000/svg" xmlns:xlink="http://www.w3.org/1999/xlink" id="Layer_1" x="0px" y="0px" width="100%" viewBox="0 0 163 151" xml:space="preserve"><path fill="#0F1010" opacity="1.000000" stroke="none" d="M1.000000,36.000000  C1.000000,27.645767 1.000000,19.291536 1.374924,10.468664  C2.499676,10.000086 3.249504,10.000149 4.188065,10.143922  C4.616476,10.497193 4.824205,10.734701 5.114201,11.303675  C6.485626,11.404901 7.742836,11.202603 9.171879,10.718540  C11.562414,8.291156 13.781117,6.145538 16.309544,3.890026  C17.079510,2.853421 17.539755,1.926711 18.000000,1.000000  C24.021152,1.000000 30.042305,1.000000 36.620293,1.290314  C37.784443,2.053731 38.391766,2.526833 39.171600,3.282270  C41.562748,6.043120 43.781376,8.521636 46.071285,11.244264  C46.761646,11.326662 47.380718,11.164948 48.345757,10.934980  C51.461304,8.577799 54.230881,6.288871 57.310097,3.890001  C58.079826,2.853372 58.539913,1.926686 59.000000,1.000000  C65.687645,1.000000 72.375290,1.000000 79.553360,1.360550  C82.428650,4.598524 84.709602,7.574921 87.280991,10.274686  C87.833549,10.854831 89.986870,10.927528 90.463310,10.394397  C93.134689,7.405151 95.518211,4.158666 98.000000,1.000001  C105.354256,1.000000 112.708504,1.000000 120.553253,1.360555  C122.897148,4.175702 124.630318,6.734143 126.636497,9.056765  C128.804459,11.566698 131.358749,11.512366 133.423431,8.980770  C135.468918,6.472724 137.155823,3.672227 139.000000,1.000000  C147.310257,1.000000 155.620499,1.000000 163.965378,1.000000  C163.965378,51.333317 163.965378,101.666656 163.965378,152.000000  C162.659195,152.000000 161.329559,152.000000 159.574036,151.659851  C160.290771,148.561493 163.219971,145.989990 160.121124,142.770386  C158.042831,140.611115 156.110916,138.227448 153.717331,136.489944  C152.501190,135.607147 149.754974,135.114487 148.831268,135.855347  C145.516037,138.514313 142.151978,141.441544 139.935303,144.975479  C139.075607,146.346039 141.222656,149.602600 142.000000,152.000000  C134.312424,152.000000 126.624847,152.000000 118.544075,151.658478  C119.505943,148.653976 122.369560,146.172607 119.250992,142.942780  C117.062408,140.676147 115.022362,138.189911 112.520943,136.334274  C111.304169,135.431641 108.484451,134.916473 107.595856,135.662262  C104.341896,138.393250 101.055565,141.407257 98.923035,144.993530  C98.077904,146.414780 100.218697,149.611603 101.000000,152.000000  C93.312424,152.000000 85.624847,152.000000 77.489922,151.642242  C79.312820,147.690125 80.016571,144.247650 76.367241,140.979233  C75.897697,140.558701 76.089676,139.399551 76.378166,138.501190  C92.055359,138.785416 105.572693,133.842987 118.015968,125.086807  C119.714676,126.904831 121.090683,128.553192 122.594643,130.075119  C130.196350,137.767578 130.548325,137.692062 137.860504,129.683044  C140.672394,126.603188 140.569244,123.903137 137.624527,121.131454  C134.753677,118.429306 131.882431,115.727585 129.127136,112.700684  C135.998840,102.608322 140.181488,91.928108 140.824829,79.509209  C140.802887,75.066917 140.697327,71.078102 140.957458,67.129868  C143.269791,68.652061 145.085480,70.372581 147.206879,71.535355  C148.745361,72.378624 151.166016,73.399147 152.374756,72.769432  C160.658371,68.453964 161.285538,63.673321 154.794464,57.295090  C154.557678,57.062416 154.299332,56.846416 154.092636,56.589203  C151.580933,53.463634 149.415237,54.076405 146.673599,56.644306  C144.645935,58.543468 141.802399,59.571541 139.208679,60.612511  C137.698227,56.169209 136.301422,52.101089 135.200134,47.858028  C137.436325,45.969776 140.112442,44.597233 137.727737,41.279728  C134.066452,36.186272 131.113251,34.763676 127.389450,36.448986  C123.740669,32.831806 120.364037,29.429930 117.130508,25.699371  C119.021683,19.819075 114.198853,17.913008 111.256577,15.363246  C107.892616,12.448050 106.358284,17.130005 103.491913,18.033781  C95.249557,16.332186 87.438309,13.698102 79.494438,13.206420  C63.958755,12.244844 50.324108,18.097122 38.126472,27.102528  C37.398159,24.777605 36.699413,22.888742 35.722969,20.814741  C33.296829,18.419569 31.148388,16.209536 28.904911,13.713024  C27.873260,13.617658 26.936644,13.808771 25.778061,14.209335  C24.703617,15.279060 23.851135,16.139336 22.645802,17.021225  C21.195486,18.029009 20.098024,19.015181 19.000418,20.251030  C19.000271,20.500706 18.999542,21.000061 18.696056,21.114277  C18.594917,22.485687 18.797268,23.742878 19.281395,25.171898  C21.708759,27.562635 23.854345,29.781548 26.156828,32.345734  C28.018749,33.174625 29.723776,33.658249 31.274235,34.454750  C20.321909,47.535961 15.627872,62.409603 15.594154,78.849518  C14.546185,78.476196 13.772118,78.238525 12.751714,77.852631  C12.003453,77.136574 11.501528,76.568741 10.924831,75.676231  C9.754531,73.198845 8.581412,71.887062 6.625634,74.997147  C5.501442,74.999039 4.751980,75.000130 3.627175,75.000854  C2.501221,75.000328 1.750610,75.000168 1.000000,75.000000  C1.000000,67.645752 1.000000,60.291500 1.374951,52.468624  C2.499791,52.000050 3.249679,52.000103 4.188270,52.143845  C4.616596,52.497089 4.824277,52.734577 5.114208,53.303547  C6.485588,53.404831 7.742772,53.202568 9.276522,52.815292  C12.035468,50.086849 14.517849,47.543423 17.278316,44.907364  C17.037548,43.543186 16.518692,42.271641 15.719942,40.829720  C13.626650,38.772999 11.813254,36.886650 9.908142,34.697998  C8.681471,32.943161 7.588704,31.084530 5.706243,34.175240  C3.941612,34.900826 2.470806,35.450413 1.000000,36.000000 M157.519180,100.019516  C150.647125,93.160431 150.221329,93.164268 143.353546,100.146866  C143.237564,100.264793 143.129288,100.392593 143.001709,100.496468  C139.341919,103.475708 139.494034,106.235863 142.927246,109.514687  C151.523132,117.724030 149.483856,117.719025 158.037109,109.549644  C161.436310,106.302979 161.731339,103.539955 157.519180,100.019516 M141.628098,21.966778  C141.766159,27.322279 145.570572,30.191368 149.786636,31.331062  C151.713348,31.851898 154.972137,29.226851 156.903809,27.302763  C158.131561,26.079844 158.946487,23.185022 158.370331,21.620329  C155.452820,13.697104 149.413284,12.707911 143.642532,18.908754  C142.970749,19.630598 142.471985,20.513458 141.628098,21.966778 z"></path><path fill="#101011" opacity="1.000000" stroke="none" d="M61.000000,152.000000  C52.979099,152.000000 44.958202,152.000000 36.540550,151.639008  C36.240082,150.961502 36.314838,150.636505 36.435883,150.329788  C38.230835,145.781281 32.959419,136.235977 28.087603,135.427628  C27.248926,135.288483 26.152622,135.747314 25.390123,136.253494  C18.775595,140.644501 17.229376,144.532028 19.000000,152.000000  C13.074268,152.000000 7.148537,152.000000 1.000000,152.000000  C1.000000,146.315063 1.000000,140.627243 1.373079,134.494797  C2.073800,134.105179 2.451807,134.072922 2.721366,134.228531  C5.702058,135.949234 8.524206,136.701981 11.083835,133.441803  C13.117357,130.851746 15.362354,128.425690 17.343975,125.798965  C17.655752,125.385689 17.244364,124.194206 16.869225,123.531242  C13.020286,116.729271 7.658857,114.884605 1.000000,118.000000  C1.000000,109.645767 1.000000,101.291534 1.358112,92.490173  C6.596977,95.441216 10.460116,93.912567 13.924005,89.685043  C14.596133,88.864738 15.885837,88.550453 17.007357,88.386078  C17.119520,89.594574 16.887175,90.499313 17.143526,91.233383  C25.182573,114.253380 40.009602,130.367264 63.917427,137.444275  C60.603661,142.058701 55.761185,146.023239 61.000000,152.000000 z"></path><path fill="#131313" opacity="1.000000" stroke="none" d="M101.467606,152.000000  C100.218697,149.611603 98.077904,146.414780 98.923035,144.993530  C101.055565,141.407257 104.341896,138.393250 107.595856,135.662262  C108.484451,134.916473 111.304169,135.431641 112.520943,136.334274  C115.022362,138.189911 117.062408,140.676147 119.250992,142.942780  C122.369560,146.172607 119.505943,148.653976 118.075439,151.658478  C112.645073,152.000000 107.290138,152.000000 101.467606,152.000000 z"></path><path fill="#131313" opacity="1.000000" stroke="none" d="M142.467606,152.000000  C141.222656,149.602600 139.075607,146.346039 139.935303,144.975479  C142.151978,141.441544 145.516037,138.514313 148.831268,135.855347  C149.754974,135.114487 152.501190,135.607147 153.717331,136.489944  C156.110916,138.227448 158.042831,140.611115 160.121124,142.770386  C163.219971,145.989990 160.290771,148.561493 159.074066,151.659851  C153.645065,152.000000 148.290146,152.000000 142.467606,152.000000 z"></path><path fill="#131313" opacity="1.000000" stroke="none" d="M19.467606,152.000000  C17.229376,144.532028 18.775595,140.644501 25.390123,136.253494  C26.152622,135.747314 27.248926,135.288483 28.087603,135.427628  C32.959419,136.235977 38.230835,145.781281 36.435883,150.329788  C36.314838,150.636505 36.240082,150.961502 36.071899,151.639008  C30.645071,152.000000 25.290140,152.000000 19.467606,152.000000 z"></path><path fill="#141414" opacity="1.000000" stroke="none" d="M1.000000,118.466858  C7.658857,114.884605 13.020286,116.729271 16.869225,123.531242  C17.244364,124.194206 17.655752,125.385689 17.343975,125.798965  C15.362354,128.425690 13.117357,130.851746 11.083835,133.441803  C8.524206,136.701981 5.702058,135.949234 2.721366,134.228531  C2.451807,134.072922 2.073800,134.105179 1.373079,134.025085  C1.000000,128.977905 1.000000,123.955818 1.000000,118.466858 z"></path><path fill="#131517" opacity="1.000000" stroke="none" d="M61.466862,152.000000  C55.761185,146.023239 60.603661,142.058701 64.338211,137.407959  C66.217819,137.062851 67.598824,137.083267 68.986557,137.057678  C68.993279,137.011688 68.901756,136.995239 68.866577,137.273605  C69.188477,137.626755 69.545563,137.701538 70.281822,137.870499  C72.432404,138.170639 74.203804,138.376602 75.975204,138.582565  C76.089676,139.399551 75.897697,140.558701 76.367241,140.979233  C80.016571,144.247650 79.312820,147.690125 77.021286,151.642242  C71.977905,152.000000 66.955818,152.000000 61.466862,152.000000 z"></path><path fill="#141415" opacity="1.000000" stroke="none" d="M16.890667,88.002762  C15.885837,88.550453 14.596133,88.864738 13.924005,89.685043  C10.460116,93.912567 6.596977,95.441216 1.358112,92.021523  C1.000000,87.310745 1.000000,82.621490 1.333386,77.440987  C2.445355,76.300232 3.223937,75.650726 4.002519,75.001221  C4.751980,75.000130 5.501442,74.999039 6.964075,75.059494  C8.784698,75.414337 9.892150,75.707626 10.999602,76.000916  C11.501528,76.568741 12.003453,77.136574 12.855669,78.157219  C14.104311,79.072487 15.002664,79.534935 16.005310,80.385086  C16.369961,83.182777 16.630316,85.592766 16.890667,88.002762 z"></path><path fill="#131313" opacity="1.000000" stroke="none" d="M9.999858,35.000305  C11.813254,36.886650 13.626650,38.772999 15.781322,41.168308  C16.415144,42.784847 16.707685,43.892422 17.000229,44.999996  C14.517849,47.543423 12.035468,50.086849 8.876534,52.815208  C7.133324,53.000092 6.066669,53.000046 5.000013,53.000000  C4.824277,52.734577 4.616596,52.497089 4.015856,51.881611  C2.769827,50.983791 1.884914,50.491894 1.000000,50.000000  C1.000000,45.643101 1.000000,41.286201 1.000000,36.464653  C2.470806,35.450413 3.941612,34.900826 6.044812,34.236763  C7.784757,34.414963 8.892307,34.707634 9.999858,35.000305 z"></path><path fill="#131313" opacity="1.000000" stroke="none" d="M46.000000,11.000152  C43.781376,8.521636 41.562748,6.043120 39.171913,2.948950  C38.999805,1.888864 38.999905,1.444432 39.000000,1.000000  C44.688042,1.000000 50.376080,1.000000 56.532131,1.374995  C57.000244,2.499974 57.000351,3.249959 57.000458,3.999943  C54.230881,6.288871 51.461304,8.577799 48.012466,10.934065  C46.888809,11.000986 46.444405,11.000569 46.000000,11.000152 z"></path><path fill="#131313" opacity="1.000000" stroke="none" d="M97.532059,1.000001  C95.518211,4.158666 93.134689,7.405151 90.463310,10.394397  C89.986870,10.927528 87.833549,10.854831 87.280991,10.274686  C84.709602,7.574921 82.428650,4.598524 80.021896,1.360550  C85.688042,1.000000 91.376083,1.000000 97.532059,1.000001 z"></path><path fill="#131313" opacity="1.000000" stroke="none" d="M138.532059,1.000000  C137.155823,3.672227 135.468918,6.472724 133.423431,8.980770  C131.358749,11.512366 128.804459,11.566698 126.636497,9.056765  C124.630318,6.734143 122.897148,4.175702 121.021881,1.360555  C126.688042,1.000000 132.376083,1.000000 138.532059,1.000000 z"></path><path fill="#131313" opacity="1.000000" stroke="none" d="M15.999821,3.999920  C13.781117,6.145538 11.562414,8.291156 8.771876,10.718477  C7.133356,11.000172 6.066671,11.000162 4.999986,11.000153  C4.824205,10.734701 4.616476,10.497193 4.015692,9.881682  C2.769724,8.983823 1.884862,8.491912 1.000000,8.000000  C1.000000,5.714996 1.000000,3.429993 1.000000,1.000000  C5.684263,1.000000 10.369469,1.000000 15.527299,1.374991  C15.999890,2.499961 15.999856,3.249941 15.999821,3.999920 z"></path><path fill="#101010" opacity="1.000000" stroke="none" d="M3.627175,75.000854  C3.223937,75.650726 2.445355,76.300232 1.333386,76.974869  C1.000000,76.555557 1.000000,76.111107 1.000000,75.333328  C1.750610,75.000168 2.501221,75.000328 3.627175,75.000854 z"></path><path fill="#101010" opacity="1.000000" stroke="none" d="M57.310097,3.890000  C57.000351,3.249959 57.000244,2.499974 57.000069,1.374995  C57.444447,1.000000 57.888889,1.000000 58.666668,1.000000  C58.539913,1.926686 58.079826,2.853372 57.310097,3.890000 z"></path><path fill="#101010" opacity="1.000000" stroke="none" d="M16.309544,3.890026  C15.999856,3.249941 15.999890,2.499961 15.999962,1.374991  C16.444445,1.000000 16.888889,1.000000 17.666668,1.000000  C17.539755,1.926711 17.079510,2.853421 16.309544,3.890026 z"></path><path fill="#101010" opacity="1.000000" stroke="none" d="M1.000000,8.333333  C1.884862,8.491912 2.769724,8.983823 3.826959,9.737973  C3.249504,10.000149 2.499676,10.000086 1.374924,10.000011  C1.000000,9.555555 1.000000,9.111111 1.000000,8.333333 z"></path><path fill="#101010" opacity="1.000000" stroke="none" d="M1.000000,50.333332  C1.884914,50.491894 2.769827,50.983791 3.827154,51.737919  C3.249679,52.000103 2.499791,52.000050 1.374951,52.000000  C1.000000,51.555553 1.000000,51.111111 1.000000,50.333332 z"></path><path fill="#101010" opacity="1.000000" stroke="none" d="M38.666668,1.000000  C38.999905,1.444432 38.999805,1.888864 38.999397,2.666615  C38.391766,2.526833 37.784443,2.053731 37.088562,1.290314  C37.444447,1.000000 37.888889,1.000000 38.666668,1.000000 z"></path><path fill="#4A7AFD" opacity="1.000000" stroke="none" d="M17.007359,88.386078  C16.630316,85.592766 16.369961,83.182777 16.058203,80.130035  C15.960552,79.319916 15.914304,79.152542 15.868054,78.985168  C15.627872,62.409603 20.321909,47.535961 31.538052,34.275242  C34.022972,31.701433 36.089508,29.620010 38.156044,27.538588  C50.324108,18.097122 63.958755,12.244844 79.494438,13.206420  C87.438309,13.698102 95.249557,16.332186 103.723648,18.294781  C108.546829,21.070417 112.767120,23.549234 116.987411,26.028049  C120.364037,29.429930 123.740669,32.831806 127.509735,36.751038  C130.236313,40.856583 132.570465,44.444778 134.904617,48.032970  C136.301422,52.101089 137.698227,56.169209 139.207840,60.964401  C139.744354,63.490746 140.168060,65.290009 140.591751,67.089279  C140.697327,71.078102 140.802887,75.066917 140.570709,79.314713  C127.677643,67.093651 115.146889,54.588638 102.530495,42.170639  C101.207924,40.868866 99.379623,40.080894 97.834625,39.030006  C97.883278,39.005474 97.940392,39.098923 97.954765,38.776070  C97.540909,38.000401 97.112686,37.547581 96.416840,36.906609  C92.130905,30.398903 86.653587,26.594549 78.542618,26.594231  C69.456726,26.951578 63.111095,31.096594 59.672607,39.126637  C56.379684,46.816730 57.837917,53.938606 63.358700,60.568878  C66.757950,63.245186 69.985085,65.658676 73.178055,68.418671  C77.235199,74.355614 72.042786,75.781250 68.635376,77.980530  C58.799511,69.715088 47.356049,69.569496 39.220554,77.447716  C31.267250,85.149506 30.982580,96.639969 38.747498,105.955963  C40.507305,107.524902 42.040558,108.824768 43.741585,110.480286  C45.584911,112.671997 47.221367,114.545624 48.942944,116.337456  C55.607189,123.273682 62.298561,130.183823 68.979828,137.103683  C67.598824,137.083267 66.217819,137.062851 64.416039,137.078735  C40.009602,130.367264 25.182573,114.253380 17.143526,91.233383  C16.887175,90.499313 17.119520,89.594574 17.007359,88.386078 z"></path><path fill="#0254BF" opacity="1.000000" stroke="none" d="M68.986557,137.057678  C62.298561,130.183823 55.607189,123.273682 48.942944,116.337456  C47.221367,114.545624 45.584911,112.671997 44.184731,110.648651  C54.615875,114.307327 62.150024,112.721901 69.153290,105.099403  C74.545868,98.611023 74.779617,91.507744 73.354347,83.982269  C75.432434,82.690445 77.190506,81.479088 79.108139,80.543320  C80.872101,81.922173 82.476509,83.025444 84.075508,84.546051  C81.889778,92.457184 82.763290,99.342010 88.297050,105.598900  C97.574348,114.807053 109.888893,114.742844 118.642807,105.527725  C125.122559,96.919571 125.653908,88.880547 120.512756,80.852600  C113.422585,69.781242 99.884720,68.650337 87.760712,77.987396  C83.013092,75.640541 81.234665,72.087105 82.354874,67.110703  C86.416275,64.750053 90.119392,62.507385 94.097588,60.024826  C99.427994,53.519833 99.824944,46.487724 97.785965,39.054539  C99.379623,40.080894 101.207924,40.868866 102.530495,42.170639  C115.146889,54.588638 127.677643,67.093651 140.487091,79.768173  C140.181488,91.928108 135.998840,102.608322 128.847107,112.879814  C124.884956,117.208916 121.318619,121.033882 117.752274,124.858849  C105.572693,133.842987 92.055359,138.785416 76.378166,138.501190  C74.203804,138.376602 72.432404,138.170639 70.128250,137.723923  C69.368805,137.314041 69.137566,137.151398 68.901756,136.995239  C68.901756,136.995239 68.993279,137.011688 68.986557,137.057678 z"></path><path fill="#131415" opacity="1.000000" stroke="none" d="M118.015968,125.086807  C121.318619,121.033882 124.884956,117.208916 128.731323,113.204811  C131.882431,115.727585 134.753677,118.429306 137.624527,121.131454  C140.569244,123.903137 140.672394,126.603188 137.860504,129.683044  C130.548325,137.692062 130.196350,137.767578 122.594643,130.075119  C121.090683,128.553192 119.714676,126.904831 118.015968,125.086807 z"></path><path fill="#131313" opacity="1.000000" stroke="none" d="M157.775894,100.276642  C161.731339,103.539955 161.436310,106.302979 158.037109,109.549644  C149.483856,117.719025 151.523132,117.724030 142.927246,109.514687  C139.494034,106.235863 139.341919,103.475708 143.001709,100.496468  C143.129288,100.392593 143.237564,100.264793 143.353546,100.146866  C150.221329,93.164268 150.647125,93.160431 157.775894,100.276642 z"></path><path fill="#141415" opacity="1.000000" stroke="none" d="M140.957458,67.129868  C140.168060,65.290009 139.744354,63.490746 139.321503,61.339584  C141.802399,59.571541 144.645935,58.543468 146.673599,56.644306  C149.415237,54.076405 151.580933,53.463634 154.092636,56.589203  C154.299332,56.846416 154.557678,57.062416 154.794464,57.295090  C161.285538,63.673321 160.658371,68.453964 152.374756,72.769432  C151.166016,73.399147 148.745361,72.378624 147.206879,71.535355  C145.085480,70.372581 143.269791,68.652061 140.957458,67.129868 z"></path><path fill="#131313" opacity="1.000000" stroke="none" d="M141.760559,21.644224  C142.471985,20.513458 142.970749,19.630598 143.642532,18.908754  C149.413284,12.707911 155.452820,13.697104 158.370331,21.620329  C158.946487,23.185022 158.131561,26.079844 156.903809,27.302763  C154.972137,29.226851 151.713348,31.851898 149.786636,31.331062  C145.570572,30.191368 141.766159,27.322279 141.760559,21.644224 z"></path><path fill="#131313" opacity="1.000000" stroke="none" d="M18.999542,21.000061  C18.999542,21.000061 19.000271,20.500706 19.319355,20.186199  C20.758512,18.914333 21.878584,17.956972 22.998657,16.999611  C23.851135,16.139336 24.703617,15.279060 26.153051,14.209393  C27.499985,13.999834 28.249966,13.999669 28.999945,13.999504  C31.148388,16.209536 33.296829,18.419569 35.721718,21.210564  C35.432755,27.563345 31.741549,31.332338 25.999933,32.000458  C23.854345,29.781548 21.708759,27.562635 19.281466,24.771898  C18.999687,23.133402 18.999615,22.066730 18.999542,21.000061 z"></path><path fill="#141518" opacity="1.000000" stroke="none" d="M117.130508,25.699373  C112.767120,23.549234 108.546829,21.070417 104.094803,18.330597  C106.358284,17.130005 107.892616,12.448050 111.256577,15.363246  C114.198853,17.913008 119.021683,19.819075 117.130508,25.699373 z"></path><path fill="#151619" opacity="1.000000" stroke="none" d="M135.200134,47.858028  C132.570465,44.444778 130.236313,40.856583 127.781891,36.966339  C131.113251,34.763676 134.066452,36.186272 137.727737,41.279728  C140.112442,44.597233 137.436325,45.969776 135.200134,47.858028 z"></path><path fill="#101010" opacity="1.000000" stroke="none" d="M26.156828,32.345734  C31.741549,31.332338 35.432755,27.563345 35.999413,21.395706  C36.699413,22.888742 37.398159,24.777605 38.126472,27.102528  C36.089508,29.620010 34.022972,31.701433 31.692617,33.962364  C29.723776,33.658249 28.018749,33.174625 26.156828,32.345734 z"></path><path fill="#101010" opacity="1.000000" stroke="none" d="M10.924829,75.676239  C9.892150,75.707626 8.784698,75.414337 7.338805,75.058685  C8.581412,71.887062 9.754531,73.198845 10.924829,75.676239 z"></path><path fill="#101010" opacity="1.000000" stroke="none" d="M5.114201,11.303675  C6.066671,11.000162 7.133356,11.000172 8.600043,11.000244  C7.742836,11.202603 6.485626,11.404901 5.114201,11.303675 z"></path><path fill="#101010" opacity="1.000000" stroke="none" d="M22.645802,17.021225  C21.878584,17.956972 20.758512,18.914333 19.319504,19.936523  C20.098024,19.015181 21.195486,18.029009 22.645802,17.021225 z"></path><path fill="#101010" opacity="1.000000" stroke="none" d="M18.696056,21.114277  C18.999615,22.066730 18.999687,23.133402 18.999689,24.600071  C18.797268,23.742878 18.594917,22.485687 18.696056,21.114277 z"></path><path fill="#101010" opacity="1.000000" stroke="none" d="M9.908141,34.697998  C8.892307,34.707634 7.784757,34.414963 6.338637,34.060764  C7.588704,31.084530 8.681471,32.943161 9.908141,34.697998 z"></path><path fill="#101010" opacity="1.000000" stroke="none" d="M17.278316,44.907364  C16.707685,43.892422 16.415144,42.784847 16.061218,41.338684  C16.518692,42.271641 17.037548,43.543186 17.278316,44.907364 z"></path><path fill="#101010" opacity="1.000000" stroke="none" d="M5.114208,53.303547  C6.066669,53.000046 7.133324,53.000092 8.599968,53.000225  C7.742772,53.202568 6.485588,53.404831 5.114208,53.303547 z"></path><path fill="#101010" opacity="1.000000" stroke="none" d="M28.904911,13.713024  C28.249966,13.999669 27.499985,13.999834 26.375015,13.999943  C26.936644,13.808771 27.873260,13.617658 28.904911,13.713024 z"></path><path fill="#101010" opacity="1.000000" stroke="none" d="M15.594154,78.849518  C15.914304,79.152542 15.960552,79.319916 15.953908,79.742340  C15.002664,79.534935 14.104311,79.072487 13.102003,78.305450  C13.772118,78.238525 14.546185,78.476196 15.594154,78.849518 z"></path><path fill="#101010" opacity="1.000000" stroke="none" d="M46.071285,11.244264  C46.444405,11.000569 46.888809,11.000986 47.666504,11.002319  C47.380718,11.164948 46.761646,11.326662 46.071285,11.244264 z"></path><path fill="#4A7AFD" opacity="1.000000" stroke="none" d="M68.866577,137.273605  C69.137566,137.151398 69.368805,137.314041 69.749069,137.629745  C69.545563,137.701538 69.188477,137.626755 68.866577,137.273605 z"></path><path fill="#FDFDFB" opacity="1.000000" stroke="none" d="M73.034332,84.062737  C74.779617,91.507744 74.545868,98.611023 68.869080,104.904251  C59.719543,93.601028 46.167473,93.943077 38.520947,105.686890  C30.982580,96.639969 31.267250,85.149506 39.220554,77.447716  C47.356049,69.569496 58.799511,69.715088 68.788422,78.271049  C70.506775,80.503571 71.770554,82.283150 73.034332,84.062737 M52.683449,94.354706  C58.793907,93.889252 61.831692,91.256149 61.993988,86.284485  C62.140598,81.793327 59.222851,78.261368 54.818825,77.598900  C50.500523,76.949326 46.416229,79.584641 45.304928,83.737572  C44.061756,88.383286 46.485291,92.263107 52.683449,94.354706 z"></path><path fill="#FDFCFC" opacity="1.000000" stroke="none" d="M63.186588,60.306061  C57.837917,53.938606 56.379684,46.816730 59.672607,39.126637  C63.111095,31.096594 69.456726,26.951578 78.560974,26.968990  C78.955467,28.982824 78.973503,30.503109 78.766129,32.144516  C78.390831,32.347057 78.240929,32.428478 77.739151,32.452938  C71.892548,34.178654 69.413193,37.221439 70.111679,41.897415  C70.767731,46.289280 73.170464,49.088200 78.247635,49.136600  C78.650108,49.352623 78.815102,49.431419 78.966629,49.760612  C78.964233,50.512177 78.975327,51.013344 78.745407,51.642570  C78.342941,51.854488 78.181488,51.938343 77.624710,51.943260  C70.981979,52.072407 66.776100,55.676579 63.186588,60.306061 z"></path><path fill="#E6E9F1" opacity="1.000000" stroke="none" d="M78.991531,32.023396  C78.973503,30.503109 78.955467,28.982824 78.919083,27.087776  C86.653587,26.594549 92.130905,30.398903 96.488495,37.218773  C97.198639,38.179028 97.569519,38.638973 97.940392,39.098923  C97.940392,39.098923 97.883278,39.005474 97.834625,39.030006  C99.824944,46.487724 99.427994,53.519833 93.814102,59.837700  C89.924484,54.670334 84.979851,52.199066 78.986412,51.514515  C78.975327,51.013344 78.964233,50.512177 79.326309,49.614059  C84.263016,48.491589 86.708168,45.719219 86.929115,41.208538  C87.196465,35.750366 83.667107,33.334576 78.991531,32.023396 z"></path><path fill="#FBCD05" opacity="1.000000" stroke="none" d="M38.747498,105.955963  C46.167473,93.943077 59.719543,93.601028 68.581497,105.130501  C62.150024,112.721901 54.615875,114.307327 44.016956,110.292992  C42.040558,108.824768 40.507305,107.524902 38.747498,105.955963 z"></path><path fill="#F9A32C" opacity="1.000000" stroke="none" d="M63.358700,60.568878  C66.776100,55.676579 70.981979,52.072407 77.629387,52.408340  C78.021515,57.666409 78.013641,62.380444 77.660980,67.193039  C75.948204,67.551788 74.580208,67.811974 73.212219,68.072159  C69.985085,65.658676 66.757950,63.245186 63.358700,60.568878 z"></path><path fill="#9FCFFA" opacity="1.000000" stroke="none" d="M73.178055,68.418671  C74.580208,67.811974 75.948204,67.551788 77.903534,67.340645  C78.640083,67.506493 78.789284,67.623291 78.930603,68.157410  C78.931335,72.472404 78.939957,76.370064 78.948578,80.267731  C77.190506,81.479088 75.432434,82.690445 73.354347,83.982269  C71.770554,82.283150 70.506775,80.503571 69.089951,78.433456  C72.042786,75.781250 77.235199,74.355614 73.178055,68.418671 z"></path><path fill="#0254BF" opacity="1.000000" stroke="none" d="M97.954765,38.776070  C97.569519,38.638973 97.198639,38.179028 96.756119,37.406921  C97.112686,37.547581 97.540909,38.000401 97.954765,38.776070 z"></path><path fill="#E7EBF1" opacity="1.000000" stroke="none" d="M88.131485,105.330566  C82.763290,99.342010 81.889778,92.457184 84.343575,84.348862  C85.770706,81.870598 86.924362,80.006851 88.078011,78.143112  C99.884720,68.650337 113.422585,69.781242 120.512756,80.852600  C125.653908,88.880547 125.122559,96.919571 118.505981,105.214172  C109.874100,93.736702 97.801514,93.835930 88.131485,105.330566 M95.050720,87.199928  C96.858276,92.647850 99.534264,94.763664 104.236923,94.332504  C108.638878,93.928917 111.181763,91.358932 111.855453,87.109192  C112.604248,82.385666 109.292183,78.225983 104.532196,77.581818  C99.246986,76.866577 95.686981,80.161987 95.050720,87.199928 z"></path><path fill="#FAB916" opacity="1.000000" stroke="none" d="M88.297050,105.598900  C97.801514,93.835930 109.874100,93.736702 118.254829,105.397644  C109.888893,114.742844 97.574348,114.807053 88.297050,105.598900 z"></path><path fill="#FB840A" opacity="1.000000" stroke="none" d="M78.938484,67.740082  C78.789284,67.623291 78.640083,67.506493 78.248322,67.242081  C78.013641,62.380444 78.021515,57.666409 78.024712,52.487286  C78.181488,51.938343 78.342941,51.854488 78.745407,51.642570  C84.979851,52.199066 89.924484,54.670334 93.539024,60.077599  C90.119392,62.507385 86.416275,64.750053 81.964325,67.090897  C80.456497,67.372742 79.697487,67.556412 78.938484,67.740082 z"></path><path fill="#65AFF9" opacity="1.000000" stroke="none" d="M78.930603,68.157410  C79.697487,67.556412 80.456497,67.372742 81.606049,67.208878  C81.234665,72.087105 83.013092,75.640541 87.760712,77.987396  C86.924362,80.006851 85.770706,81.870598 84.348984,83.931519  C82.476509,83.025444 80.872101,81.922173 79.108139,80.543320  C78.939957,76.370064 78.931335,72.472404 78.930603,68.157410 z"></path><path fill="#FFCF07" opacity="1.000000" stroke="none" d="M52.271629,94.292976  C46.485291,92.263107 44.061756,88.383286 45.304928,83.737572  C46.416229,79.584641 50.500523,76.949326 54.818825,77.598900  C59.222851,78.261368 62.140598,81.793327 61.993988,86.284485  C61.831692,91.256149 58.793907,93.889252 52.271629,94.292976 z"></path><path fill="#FE870C" opacity="1.000000" stroke="none" d="M78.766129,32.144516  C83.667107,33.334576 87.196465,35.750366 86.929115,41.208538  C86.708168,45.719219 84.263016,48.491589 79.339783,49.363667  C78.815102,49.431419 78.650108,49.352623 78.250305,48.669834  C78.040672,42.880524 78.065849,37.695210 78.091026,32.509895  C78.240929,32.428478 78.390831,32.347057 78.766129,32.144516 z"></path><path fill="#FFA72D" opacity="1.000000" stroke="none" d="M77.739151,32.452938  C78.065849,37.695210 78.040672,42.880524 78.012833,48.532604  C73.170464,49.088200 70.767731,46.289280 70.111679,41.897415  C69.413193,37.221439 71.892548,34.178654 77.739151,32.452938 z"></path><path fill="#FDBB18" opacity="1.000000" stroke="none" d="M95.030472,86.798004  C95.686981,80.161987 99.246986,76.866577 104.532196,77.581818  C109.292183,78.225983 112.604248,82.385666 111.855453,87.109192  C111.181763,91.358932 108.638878,93.928917 104.236923,94.332504  C99.534264,94.763664 96.858276,92.647850 95.030472,86.798004 z"></path></svg>