<svg xmlns="http://www.w3.org/2000/svg" xmlns:xlink="http://www.w3.org/1999/xlink" id="Layer_1" x="0px" y="0px" width="100%" viewBox="0 0 154 160" xml:space="preserve"><path fill="#10100F" opacity="1.000000" stroke="none" d="M155.000000,17.000000  C155.000000,27.687561 155.000000,38.375122 154.652008,49.489891  C152.779312,48.699635 151.403900,47.157749 149.683319,46.365963  C148.272247,45.716614 146.033615,45.245823 144.877274,45.921066  C136.265793,50.949730 135.993591,54.443279 142.744492,61.355812  C145.943207,64.631096 148.412415,64.617928 151.345032,61.253716  C152.243179,60.223385 153.764206,59.736012 155.000000,59.000000  C155.000000,69.020897 155.000000,79.041786 154.652390,89.489868  C153.604416,89.508041 152.846817,89.172501 152.212616,88.678535  C146.481827,84.214951 146.284393,84.259430 141.343704,89.280945  C140.526428,90.111603 139.197617,90.438965 138.042694,90.539169  C138.316452,75.656975 135.250275,62.248688 126.137909,50.291359  C123.157722,46.730347 120.257957,43.496559 117.322052,40.126396  C117.045166,39.785004 116.776657,39.698349 116.360497,39.489510  C115.817749,38.936737 115.394890,38.624512 114.732498,38.060295  C110.703728,35.451420 106.914497,33.094532 102.910309,30.461033  C94.463028,28.187683 86.230682,26.190947 77.546249,24.114231  C66.900963,23.625322 57.340115,26.269985 48.003471,29.669935  C46.667698,28.244089 45.293659,26.273659 44.030029,26.342089  C40.502686,26.533104 36.286316,33.418301 36.827682,37.296913  C33.209328,40.953979 29.769794,44.330956 26.133402,47.362583  C22.835768,46.074913 17.766590,48.909466 15.714745,52.971867  C13.969217,56.427799 17.201830,57.393337 18.999107,59.381924  C17.525995,63.831440 16.093704,67.912231 14.300777,71.991402  C11.777122,70.643631 9.670073,69.194321 7.434724,67.981468  C5.361056,66.856346 3.150359,65.983772 1.000000,65.000000  C1.000000,57.979053 1.000000,50.958103 1.388137,43.467804  C4.910169,41.078869 8.292695,39.449692 11.049452,37.089584  C12.079816,36.207474 12.487254,33.084724 11.733903,31.910816  C9.302014,28.121326 6.114523,24.896769 1.000000,25.000000  C1.000000,17.020679 1.000000,9.041360 1.000000,1.031020  C52.333324,1.031020 103.666656,1.031020 155.000000,1.034799  C155.000000,3.698354 155.000000,6.358129 154.652023,9.467431  C153.365875,9.273925 152.483215,8.521531 151.477646,8.011312  C149.564789,7.040737 146.727692,4.928952 145.786575,5.557005  C142.870438,7.503082 138.885529,10.393904 138.701111,13.144980  C138.529205,15.709445 142.416534,18.900730 145.101807,21.102974  C145.999756,21.839403 148.792374,20.592606 150.552124,19.854671  C152.152390,19.183626 153.526306,17.972851 155.000000,17.000000 M134.524658,35.726475  C136.067688,31.240946 132.237076,29.842375 129.985001,27.327290  C127.101677,24.107252 124.573669,25.019634 122.535583,27.618820  C120.227577,30.562243 115.299042,33.045815 119.549538,38.061096  C124.892029,44.364849 126.081909,44.449089 132.012009,38.485126  C132.716797,37.776302 133.401215,37.047207 134.524658,35.726475 M60.485302,18.985746  C61.898811,20.326859 63.312321,21.667969 65.799561,24.027822  C67.828239,21.514120 69.739716,19.431442 71.297905,17.111471  C72.288025,15.637283 73.768600,12.792683 73.285400,12.310633  C70.588181,9.619845 67.452957,5.827695 64.281181,5.644946  C61.785625,5.501160 58.603764,9.754812 56.642658,12.671070  C56.092274,13.489516 58.779541,16.485205 60.485302,18.985746 M102.059898,7.440536  C100.883537,8.620740 99.317848,9.615930 98.643608,11.034748  C98.007675,12.372966 97.636528,14.562608 98.308853,15.679390  C102.734695,23.031015 106.083946,23.236094 112.115936,17.513794  C114.908081,14.865003 115.476700,12.547936 112.509804,10.114763  C109.701096,7.811313 107.770836,2.038455 102.059898,7.440536 M16.166208,14.991134  C17.802042,16.846205 19.243576,18.945398 21.148905,20.461872  C22.236366,21.327396 24.359039,21.942104 25.537193,21.471668  C32.627598,18.640471 33.690475,13.072525 28.369602,7.872613  C27.657503,7.176704 27.034313,6.211361 26.175304,5.888225  C25.034311,5.459013 23.033934,4.957050 22.564501,5.496768  C20.184357,8.233259 18.180258,11.296825 16.166208,14.991134 z"></path><path fill="#101010" opacity="1.000000" stroke="none" d="M116.000000,161.000000  C109.312355,161.000000 102.624710,161.000000 95.474556,160.634262  C94.415718,157.783447 94.057625,155.206161 93.143555,152.844040  C92.477737,151.123444 91.078293,149.686768 90.325531,147.916718  C99.971886,145.029327 108.619041,141.046768 116.377907,134.454193  C120.730797,134.231430 124.858406,134.869446 127.631111,130.979111  C129.850204,127.865509 129.256409,126.483879 125.224052,125.541290  C125.175362,124.946701 125.148499,124.606880 125.431046,124.105370  C129.535309,115.630310 133.330170,107.316940 137.460968,99.049576  C139.417130,100.448158 141.130325,101.705376 142.636917,103.174484  C145.247589,105.720192 147.570450,106.685036 150.398849,103.268959  C151.394165,102.066856 153.436005,101.731255 155.000000,101.000000  C155.000000,110.687561 155.000000,120.375122 154.652008,130.489807  C152.778381,129.698578 151.402313,128.154739 149.680405,127.363434  C148.268707,126.714684 145.885880,126.217514 144.910004,126.951469  C142.035706,129.113235 139.553207,131.836655 137.138260,134.537735  C136.582977,135.158813 136.428040,136.997864 136.913757,137.547867  C139.726486,140.732742 142.466995,144.187149 145.943787,146.462753  C147.085510,147.210037 150.342697,144.686966 152.653320,143.708542  C153.401428,143.391785 154.215897,143.231735 155.000000,143.000000  C155.000000,148.925735 155.000000,154.851456 155.000000,161.000000  C149.315063,161.000000 143.627243,161.000000 137.469650,160.588562  C138.057556,153.822266 132.354263,151.667892 129.339096,147.842468  C127.466156,145.466232 125.284988,145.837509 123.303123,147.461029  C119.047485,150.947220 114.883560,154.576782 116.000000,161.000000 z"></path><path fill="#11100F" opacity="1.000000" stroke="none" d="M1.000000,106.000000  C1.000000,99.312355 1.000000,92.624710 1.366495,85.461983  C3.012834,84.316681 4.329230,83.707214 5.564968,82.963699  C8.195344,81.381042 10.783822,79.728760 13.419014,78.525620  C13.364086,80.622559 13.279619,82.298897 13.113111,84.424866  C12.874320,99.432228 16.500631,112.756958 25.759632,124.438721  C25.447437,125.093170 25.228989,125.524178 24.616779,125.973633  C23.457800,126.993820 22.692579,127.995560 21.564260,129.005676  C19.527290,130.458130 17.761782,131.810120 16.198620,133.365479  C12.938623,136.609222 14.456470,139.508041 17.366251,141.763031  C20.265202,144.009644 22.926500,148.443604 27.453838,144.457047  C30.530670,141.747757 33.343330,138.738449 36.588791,135.977219  C49.285854,145.736267 63.419468,149.877701 78.981094,149.822815  C77.391930,153.613846 74.019928,156.574585 76.000000,161.000000  C69.312355,161.000000 62.624710,161.000000 55.474976,160.632217  C55.762535,156.188660 49.118977,146.794312 45.035427,146.226776  C44.418030,146.140991 43.727699,146.298996 43.116966,146.490494  C37.999416,148.095093 33.232021,155.708435 34.000000,161.000000  C27.645601,161.000000 21.291203,161.000000 14.474633,160.635101  C15.110749,154.285019 8.098699,146.595215 1.000000,146.000000  C1.000000,139.645599 1.000000,133.291199 1.398162,126.468430  C8.061258,126.254837 10.180537,120.799454 13.635701,117.250916  C14.100424,116.773621 14.024809,114.967751 13.519549,114.476898  C9.862832,110.924370 7.612188,105.186577 1.000000,106.000000 z"></path><path fill="#131313" opacity="1.000000" stroke="none" d="M155.000000,142.539368  C154.215897,143.231735 153.401428,143.391785 152.653320,143.708542  C150.342697,144.686966 147.085510,147.210037 145.943787,146.462753  C142.466995,144.187149 139.726486,140.732742 136.913757,137.547867  C136.428040,136.997864 136.582977,135.158813 137.138260,134.537735  C139.553207,131.836655 142.035706,129.113235 144.910004,126.951469  C145.885880,126.217514 148.268707,126.714684 149.680405,127.363434  C151.402313,128.154739 152.778381,129.698578 154.652008,130.958466  C155.000000,134.692902 155.000000,138.385818 155.000000,142.539368 z"></path><path fill="#141413" opacity="1.000000" stroke="none" d="M155.000000,100.541931  C153.436005,101.731255 151.394165,102.066856 150.398849,103.268959  C147.570450,106.685036 145.247589,105.720192 142.636917,103.174484  C141.130325,101.705376 139.417130,100.448158 137.425995,98.646179  C137.405106,95.797501 137.755157,93.398216 138.105209,90.998917  C139.197617,90.438965 140.526428,90.111603 141.343704,89.280945  C146.284393,84.259430 146.481827,84.214951 152.212616,88.678535  C152.846817,89.172501 153.604416,89.508041 154.652390,89.958527  C155.000000,93.361290 155.000000,96.722572 155.000000,100.541931 z"></path><path fill="#131313" opacity="1.000000" stroke="none" d="M34.468533,161.000000  C33.232021,155.708435 37.999416,148.095093 43.116966,146.490494  C43.727699,146.298996 44.418030,146.140991 45.035427,146.226776  C49.118977,146.794312 55.762535,156.188660 55.006439,160.632217  C48.312355,161.000000 41.624710,161.000000 34.468533,161.000000 z"></path><path fill="#131313" opacity="1.000000" stroke="none" d="M116.468536,161.000000  C114.883560,154.576782 119.047485,150.947220 123.303123,147.461029  C125.284988,145.837509 127.466156,145.466232 129.339096,147.842468  C132.354263,151.667892 138.057556,153.822266 136.999939,160.588562  C130.312347,161.000000 123.624710,161.000000 116.468536,161.000000 z"></path><path fill="#131313" opacity="1.000000" stroke="none" d="M155.000000,58.550018  C153.764206,59.736012 152.243179,60.223385 151.345032,61.253716  C148.412415,64.617928 145.943207,64.631096 142.744492,61.355812  C135.993591,54.443279 136.265793,50.949730 144.877274,45.921066  C146.033615,45.245823 148.272247,45.716614 149.683319,46.365963  C151.403900,47.157749 152.779312,48.699635 154.652008,49.958549  C155.000000,52.700012 155.000000,55.400028 155.000000,58.550018 z"></path><path fill="#181613" opacity="1.000000" stroke="none" d="M76.468269,161.000000  C74.019928,156.574585 77.391930,153.613846 79.402237,149.702423  C83.227463,148.870316 86.616684,148.496902 90.005913,148.123505  C91.078293,149.686768 92.477737,151.123444 93.143555,152.844040  C94.057625,155.206161 94.415718,157.783447 95.006027,160.634262  C88.978844,161.000000 82.957695,161.000000 76.468269,161.000000 z"></path><path fill="#131313" opacity="1.000000" stroke="none" d="M155.000000,16.562500  C153.526306,17.972851 152.152390,19.183626 150.552124,19.854671  C148.792374,20.592606 145.999756,21.839403 145.101807,21.102974  C142.416534,18.900730 138.529205,15.709445 138.701111,13.144980  C138.885529,10.393904 142.870438,7.503082 145.786575,5.557005  C146.727692,4.928952 149.564789,7.040737 151.477646,8.011312  C152.483215,8.521531 153.365875,9.273925 154.652023,9.958479  C155.000000,12.041667 155.000000,14.083333 155.000000,16.562500 z"></path><path fill="#131313" opacity="1.000000" stroke="none" d="M1.000000,106.468399  C7.612188,105.186577 9.862832,110.924370 13.519549,114.476898  C14.024809,114.967751 14.100424,116.773621 13.635701,117.250916  C10.180537,120.799454 8.061258,126.254837 1.398162,126.000023  C1.000000,119.645599 1.000000,113.291206 1.000000,106.468399 z"></path><path fill="#151513" opacity="1.000000" stroke="none" d="M13.389475,78.105019  C10.783822,79.728760 8.195344,81.381042 5.564968,82.963699  C4.329230,83.707214 3.012834,84.316681 1.366495,84.993454  C1.000000,78.645599 1.000000,72.291206 1.000000,65.468399  C3.150359,65.983772 5.361056,66.856346 7.434724,67.981468  C9.670073,69.194321 11.777122,70.643631 14.300922,72.343674  C14.237626,74.500046 13.813551,76.302536 13.389475,78.105019 z"></path><path fill="#141414" opacity="1.000000" stroke="none" d="M1.000000,146.472656  C8.098699,146.595215 15.110749,154.285019 14.006231,160.635101  C9.736837,161.000000 5.473674,161.000000 1.000000,161.000000  C1.000000,156.316452 1.000000,151.630890 1.000000,146.472656 z"></path><path fill="#131313" opacity="1.000000" stroke="none" d="M1.000000,25.467939  C6.114523,24.896769 9.302014,28.121326 11.733903,31.910816  C12.487254,33.084724 12.079816,36.207474 11.049452,37.089584  C8.292695,39.449692 4.910169,41.078869 1.388137,42.999229  C1.000000,37.311958 1.000000,31.623919 1.000000,25.467939 z"></path><path fill="#FDFDFD" opacity="1.000000" stroke="none" d="M117.358200,40.262764  C120.257957,43.496559 123.157722,46.730347 126.063858,50.783604  C126.000381,68.471138 125.930534,85.339211 125.402039,102.174698  C111.618225,102.111488 98.293068,102.080872 84.974152,101.606018  C85.000404,98.522377 85.020401,95.882973 85.434250,93.186478  C86.889992,93.085144 87.951874,93.040894 89.481308,93.013763  C98.635818,93.064674 107.322792,93.098457 116.117371,93.264267  C116.476669,93.263733 116.728371,93.131172 116.972633,92.583412  C115.740501,91.449158 114.526688,90.130646 113.289352,90.108192  C105.175835,89.960938 97.057251,90.093666 88.548477,90.095596  C87.105438,90.011688 86.054222,89.967178 85.109070,89.536377  C86.722092,88.762505 88.224365,88.062752 89.736839,88.039940  C97.350380,87.925156 104.969185,88.089958 112.579628,87.898201  C114.064545,87.860779 115.520645,86.679550 116.981743,85.608948  C115.747124,84.468781 114.531471,83.142021 113.292747,83.120132  C105.174591,82.976707 97.051445,83.115273 88.539330,83.117935  C87.098846,83.031700 86.048973,82.989281 85.103783,82.558823  C86.699043,81.777542 88.184593,81.068298 89.681030,81.044510  C97.071449,80.927032 104.465752,81.055756 111.856285,80.942062  C113.552032,80.915977 115.238358,80.276207 116.950691,79.506371  C117.282822,75.668846 114.862663,76.030029 112.710876,76.021751  C103.480629,75.986237 94.250381,75.951546 85.012436,75.593307  C85.012642,74.623466 85.020554,73.976883 85.479446,73.257828  C88.210548,73.185356 90.490692,73.185356 92.894165,73.185356  C92.894165,65.377052 92.894165,58.190880 92.894165,50.960461  C89.979652,50.784550 87.496521,50.634674 85.017570,50.166832  C85.014450,49.212963 85.007164,48.577068 85.332367,47.840645  C86.114838,47.636993 86.564812,47.533867 87.465195,47.557892  C97.517799,47.685047 107.119995,47.685047 116.840225,47.685047  C117.036377,44.874283 117.197289,42.568523 117.358200,40.262764 M105.548401,72.996590  C108.349777,72.991776 111.166245,73.151138 113.944611,72.895844  C114.959412,72.802597 115.883675,71.724068 116.849236,71.095032  C115.938965,70.412369 115.070915,69.220390 114.110641,69.140778  C111.000511,68.882942 107.810898,68.703651 104.739723,69.128685  C102.188446,69.481773 98.698570,67.017761 97.166412,71.189766  C99.640732,71.793861 102.115059,72.397957 105.548401,72.996590 M111.396545,66.011391  C113.223625,65.757668 115.050697,65.503952 116.877777,65.250237  C116.815308,64.612617 116.752846,63.975006 116.690384,63.337391  C110.717339,62.978485 104.744286,62.619576 98.771240,62.260670  C98.712242,62.903763 98.653244,63.546856 98.594238,64.189949  C102.555702,64.797112 106.517166,65.404282 111.396545,66.011391 M106.931366,59.000660  C110.230659,58.819195 113.529945,58.637730 116.829239,58.456264  C116.762100,57.795467 116.694962,57.134670 116.627831,56.473873  C111.943520,55.852852 107.264153,55.387165 102.643890,56.776157  C102.608467,57.248539 102.573051,57.720917 102.537628,58.193298  C103.713539,58.462219 104.889450,58.731140 106.931366,59.000660 z"></path><path fill="#FCC302" opacity="1.000000" stroke="none" d="M13.419015,78.525620  C13.813551,76.302536 14.237626,74.500046 14.661557,72.345291  C16.093704,67.912231 17.525995,63.831440 19.281364,59.186729  C21.846380,54.984516 24.088322,51.346226 26.330261,47.707932  C29.769794,44.330956 33.209328,40.953979 37.158493,37.207008  C41.117283,34.576645 44.566441,32.316280 48.015598,30.055912  C57.340115,26.269985 66.900963,23.625322 77.546753,24.522903  C77.993584,26.918497 77.987816,28.825445 77.530457,30.805634  C75.011871,30.878874 72.944885,30.878874 70.846207,30.878874  C70.603043,36.119724 70.397675,40.545830 69.917557,45.077858  C63.118050,51.880039 55.224316,54.829769 45.882717,54.030926  C40.780991,53.594646 37.139633,55.493587 35.603226,60.949844  C30.452337,61.275604 28.525814,64.059959 28.460049,68.553162  C28.365053,75.043427 28.237917,81.533234 27.834953,87.828308  C22.257364,78.574371 20.303522,78.076302 13.195152,83.975243  C13.279619,82.298897 13.364086,80.622559 13.419015,78.525620 z"></path><path fill="#FBA30E" opacity="1.000000" stroke="none" d="M125.860680,102.207283  C125.930534,85.339211 126.000381,68.471138 126.144287,51.110825  C135.250275,62.248688 138.316452,75.656975 138.042694,90.539169  C137.755157,93.398216 137.405106,95.797501 137.090057,98.600182  C133.330170,107.316940 129.535309,115.630310 125.176254,123.806229  C123.924278,123.312302 123.236519,122.955833 122.553703,122.202065  C122.522385,116.299400 122.486130,110.794037 122.819931,105.234627  C125.292488,105.278374 126.586571,104.650024 125.860680,102.207283 z"></path><path fill="#10B9EE" opacity="1.000000" stroke="none" d="M117.322052,40.126392  C117.197289,42.568523 117.036377,44.874283 116.840225,47.685047  C107.119995,47.685047 97.517799,47.685047 87.461868,47.158356  C87.008507,44.454067 87.008896,42.276470 87.471420,40.019066  C96.957291,39.877506 105.981003,39.815750 115.374260,39.786423  C115.989326,39.789253 116.234856,39.759655 116.480385,39.730053  C116.776657,39.698349 117.045166,39.785004 117.322052,40.126392 z"></path><path fill="#FDFDFD" opacity="1.000000" stroke="none" d="M115.004723,39.753994  C105.981003,39.815750 96.957291,39.877506 87.139023,39.951904  C85.899483,39.896946 85.454506,39.829346 85.007126,39.330559  C85.002365,36.303642 84.999992,33.707905 85.460800,31.038280  C91.657745,30.888807 97.391502,30.813227 103.125259,30.737648  C106.914497,33.094532 110.703728,35.451420 114.718918,38.300659  C114.959435,39.113674 114.979385,39.434002 115.004723,39.753994 z"></path><path fill="#131313" opacity="1.000000" stroke="none" d="M134.309875,36.026993  C133.401215,37.047207 132.716797,37.776302 132.012009,38.485126  C126.081909,44.449089 124.892029,44.364849 119.549538,38.061096  C115.299042,33.045815 120.227577,30.562243 122.535583,27.618820  C124.573669,25.019634 127.101677,24.107252 129.985001,27.327290  C132.237076,29.842375 136.067688,31.240946 134.309875,36.026993 z"></path><path fill="#131313" opacity="1.000000" stroke="none" d="M60.233505,18.733973  C58.779541,16.485205 56.092274,13.489516 56.642658,12.671070  C58.603764,9.754812 61.785625,5.501160 64.281181,5.644946  C67.452957,5.827695 70.588181,9.619845 73.285400,12.310633  C73.768600,12.792683 72.288025,15.637283 71.297905,17.111471  C69.739716,19.431442 67.828239,21.514120 65.799561,24.027822  C63.312321,21.667969 61.898811,20.326859 60.233505,18.733973 z"></path><path fill="#131313" opacity="1.000000" stroke="none" d="M102.319504,7.182478  C107.770836,2.038455 109.701096,7.811313 112.509804,10.114763  C115.476700,12.547936 114.908081,14.865003 112.115936,17.513794  C106.083946,23.236094 102.734695,23.031015 98.308853,15.679390  C97.636528,14.562608 98.007675,12.372966 98.643608,11.034748  C99.317848,9.615930 100.883537,8.620740 102.319504,7.182478 z"></path><path fill="#131313" opacity="1.000000" stroke="none" d="M16.105293,14.618454  C18.180258,11.296825 20.184357,8.233259 22.564501,5.496768  C23.033934,4.957050 25.034311,5.459013 26.175304,5.888225  C27.034313,6.211361 27.657503,7.176704 28.369602,7.872613  C33.690475,13.072525 32.627598,18.640471 25.537193,21.471668  C24.359039,21.942104 22.236366,21.327396 21.148905,20.461872  C19.243576,18.945398 17.802042,16.846205 16.105293,14.618454 z"></path><path fill="#F9A411" opacity="1.000000" stroke="none" d="M102.910309,30.461033  C97.391502,30.813227 91.657745,30.888807 85.027840,30.963963  C82.081810,30.886488 80.031937,30.809441 77.982056,30.732391  C77.987816,28.825445 77.993584,26.918497 77.998840,24.602879  C86.230682,26.190947 94.463028,28.187683 102.910309,30.461033 z"></path><path fill="#181713" opacity="1.000000" stroke="none" d="M26.133402,47.362587  C24.088322,51.346226 21.846380,54.984516 19.322184,58.818001  C17.201830,57.393337 13.969217,56.427799 15.714745,52.971867  C17.766590,48.909466 22.835768,46.074913 26.133402,47.362587 z"></path><path fill="#181713" opacity="1.000000" stroke="none" d="M48.003471,29.669935  C44.566441,32.316280 41.117283,34.576645 37.337315,36.926918  C36.286316,33.418301 40.502686,26.533104 44.030029,26.342089  C45.293659,26.273659 46.667698,28.244089 48.003471,29.669935 z"></path><path fill="#F1EBED" opacity="1.000000" stroke="none" d="M115.374260,39.786423  C114.979385,39.434002 114.959435,39.113674 114.958450,38.552650  C115.394890,38.624512 115.817749,38.936737 116.360497,39.489510  C116.234856,39.759655 115.989326,39.789253 115.374260,39.786423 z"></path><path fill="#F69E12" opacity="1.000000" stroke="none" d="M90.325531,147.916718  C86.616684,148.496902 83.227463,148.870316 79.417091,149.364105  C63.419468,149.877701 49.285854,145.736267 36.543266,135.779114  C35.905041,135.202972 35.627003,134.938843 35.780224,134.566223  C62.785389,134.475296 89.359299,134.492859 115.933205,134.510422  C108.619041,141.046768 99.971886,145.029327 90.325531,147.916718 z"></path><path fill="#6A2BC1" opacity="1.000000" stroke="none" d="M116.377907,134.454193  C89.359299,134.492859 62.785389,134.475296 35.317368,134.441223  C29.443651,134.490402 24.525423,134.414795 21.927361,128.997299  C22.692579,127.995560 23.457800,126.993820 25.082048,125.999420  C36.578445,126.002373 47.216003,125.965981 57.852985,126.027992  C59.452702,126.037315 61.088188,126.367386 62.638878,126.796013  C64.889725,127.418167 67.043114,128.750031 69.301094,128.914642  C73.930298,129.252151 78.603561,129.094223 83.253944,128.967056  C84.673828,128.928238 86.092239,128.371765 87.486458,127.966774  C89.616280,127.348076 91.711555,126.134598 93.844063,126.081604  C104.307243,125.821617 114.777878,125.861870 125.245880,125.796051  C129.256409,126.483879 129.850204,127.865509 127.631111,130.979111  C124.858406,134.869446 120.730797,134.231430 116.377907,134.454193 z"></path><path fill="#672D7E" opacity="1.000000" stroke="none" d="M125.224052,125.541290  C114.777878,125.861870 104.307243,125.821617 93.844063,126.081604  C91.711555,126.134598 89.616280,127.348076 87.486458,127.966774  C86.092239,128.371765 84.673828,128.928238 83.253944,128.967056  C78.603561,129.094223 73.930298,129.252151 69.301094,128.914642  C67.043114,128.750031 64.889725,127.418167 62.638878,126.796013  C61.088188,126.367386 59.452702,126.037315 57.852985,126.027992  C47.216003,125.965981 36.578445,126.002373 25.475807,125.980972  C25.228989,125.524178 25.447437,125.093170 25.946405,124.149963  C26.841625,123.381966 27.456327,123.126167 28.498665,122.881332  C30.656729,122.843735 32.387157,122.795181 34.575253,122.797318  C41.773598,122.714729 48.514278,122.581436 55.699661,122.519638  C76.415039,122.521500 96.685707,122.451866 117.349014,122.501297  C119.344017,122.613358 120.946388,122.606361 122.548759,122.599373  C123.236519,122.955833 123.924278,123.312302 124.866837,123.967911  C125.148499,124.606880 125.175362,124.946701 125.224052,125.541290 z"></path><path fill="#FDA40A" opacity="1.000000" stroke="none" d="M28.071028,122.870361  C27.456327,123.126167 26.841625,123.381966 26.040150,123.926529  C16.500631,112.756958 12.874320,99.432228 13.113111,84.424866  C20.303522,78.076302 22.257364,78.574371 27.940998,88.285095  C28.248062,100.247993 28.159544,111.559174 28.071028,122.870361 z"></path><path fill="#151417" opacity="1.000000" stroke="none" d="M21.564262,129.005676  C24.525423,134.414795 29.443651,134.490402 34.886108,134.549698  C35.627003,134.938843 35.905041,135.202972 36.228600,135.665192  C33.343330,138.738449 30.530670,141.747757 27.453838,144.457047  C22.926500,148.443604 20.265202,144.009644 17.366251,141.763031  C14.456470,139.508041 12.938623,136.609222 16.198620,133.365479  C17.761782,131.810120 19.527290,130.458130 21.564262,129.005676 z"></path><path fill="#F1EBED" opacity="1.000000" stroke="none" d="M77.530457,30.805634  C80.031937,30.809441 82.081810,30.886488 84.564651,31.037853  C84.999992,33.707905 85.002365,36.303642 84.559189,39.408119  C82.051933,39.916862 79.990219,39.916862 77.992111,39.916862  C77.992111,42.830540 77.992111,44.931702 77.992111,47.296146  C80.480705,47.525208 82.740288,47.733192 84.999870,47.941177  C85.007164,48.577068 85.014450,49.212963 84.684830,50.268005  C83.895859,50.786587 83.443787,50.886021 82.542419,50.891880  C80.657722,51.418072 78.006973,51.981506 77.975235,52.666321  C77.663284,59.397373 77.786942,66.148613 77.786942,73.122299  C80.009102,73.023628 81.491692,72.957794 83.316231,72.970825  C84.114944,73.143234 84.571709,73.236763 85.028473,73.330292  C85.020554,73.976883 85.012642,74.623466 84.582253,75.617622  C83.662270,75.971535 83.111809,75.840530 82.676544,76.008331  C80.918488,76.686073 79.195938,77.455917 77.460281,78.191772  C79.172928,78.789436 80.879784,79.884315 82.599159,79.904320  C94.040947,80.037506 105.485420,79.940834 116.929016,79.918869  C115.238358,80.276207 113.552032,80.915977 111.856285,80.942062  C104.465752,81.055756 97.071449,80.927032 89.681030,81.044510  C88.184593,81.068298 86.699043,81.777542 84.668854,82.589096  C82.107338,83.238235 80.085449,83.469070 78.063553,83.699913  C78.105675,84.473549 78.147789,85.247185 78.189911,86.020821  C81.795731,86.020821 85.401550,86.020821 89.475502,86.029549  C98.959099,86.034149 107.974571,86.030014 116.990036,86.025894  C115.520645,86.679550 114.064545,87.860779 112.579628,87.898201  C104.969185,88.089958 97.350380,87.925156 89.736839,88.039940  C88.224365,88.062752 86.722092,88.762505 84.674385,89.570709  C82.107941,90.220619 80.082222,90.449913 78.056503,90.679207  C78.070572,91.279869 78.084633,91.880531 78.098701,92.481186  C80.412598,92.735321 82.726494,92.989449 85.040405,93.243576  C85.020401,95.882973 85.000404,98.522377 84.512947,101.622025  C79.686104,102.108231 75.326714,102.134171 70.962814,101.675018  C70.956535,93.453552 71.047783,85.715569 70.914024,77.981483  C70.846573,74.081375 70.371284,70.188324 70.163971,65.860031  C70.218643,63.972481 70.189751,62.516972 70.326096,60.686714  C70.391655,55.198627 70.291985,50.085281 70.192314,44.971935  C70.397675,40.545830 70.603043,36.119724 70.846207,30.878874  C72.944885,30.878874 75.011871,30.878874 77.530457,30.805634 z"></path><path fill="#9AEDEC" opacity="1.000000" stroke="none" d="M70.967331,102.160110  C75.326714,102.134171 79.686104,102.108231 84.506699,102.066269  C98.293068,102.080872 111.618225,102.111488 125.402039,102.174698  C126.586571,104.650024 125.292488,105.278374 122.389450,105.163116  C120.140732,105.125206 118.692543,105.104736 116.759773,105.058075  C111.515968,105.339691 106.756737,105.647484 101.555206,105.976410  C98.747597,106.011833 96.382301,106.026115 93.797478,105.772041  C92.677734,105.365158 91.777512,105.226631 90.464249,105.084526  C88.679199,105.146584 87.307205,105.212227 85.516312,105.214272  C84.356735,106.278549 83.077888,107.360596 82.977196,108.542976  C82.685555,111.967316 82.867378,115.431976 82.563339,118.904762  C81.864761,118.891129 81.466217,118.853531 81.060860,118.403458  C80.684608,115.455276 79.452347,112.662476 80.116165,110.434654  C81.757614,104.925804 79.037170,104.671135 74.658798,105.140594  C73.328415,105.086372 72.354774,105.113602 70.995392,105.096664  C70.092796,105.037567 69.575951,105.022636 68.990829,104.674316  C68.967354,103.891685 69.012169,103.442451 69.332939,102.982391  C70.061714,102.701080 70.514526,102.430595 70.967331,102.160110 z"></path><path fill="#FA3C7F" opacity="1.000000" stroke="none" d="M82.991722,50.985451  C83.443787,50.886021 83.895859,50.786587 84.680664,50.585979  C87.496521,50.634674 89.979652,50.784550 92.894165,50.960461  C92.894165,58.190880 92.894165,65.377052 92.894165,73.185356  C90.490692,73.185356 88.210548,73.185356 85.479446,73.257828  C84.571709,73.236763 84.114944,73.143234 83.418228,72.610107  C85.099197,71.411423 87.020126,70.652321 90.224648,69.385986  C87.082535,68.355721 85.289757,67.767891 83.116974,67.055466  C85.047623,65.990555 86.453995,65.214828 87.124222,64.845146  C85.517319,62.311882 82.998230,60.000870 83.431129,58.606056  C83.981895,56.831470 86.923409,55.798889 88.903534,54.397358  C86.808228,53.188084 84.899971,52.086765 82.991722,50.985451 z"></path><path fill="#C2FAF4" opacity="1.000000" stroke="none" d="M116.950691,79.506371  C105.485420,79.940834 94.040947,80.037506 82.599159,79.904320  C80.879784,79.884315 79.172928,78.789436 77.460281,78.191772  C79.195938,77.455917 80.918488,76.686073 82.676544,76.008331  C83.111809,75.840530 83.662270,75.971535 84.589951,75.940872  C94.250381,75.951546 103.480629,75.986237 112.710876,76.021751  C114.862663,76.030029 117.282822,75.668846 116.950691,79.506371 z"></path><path fill="#B8FFF6" opacity="1.000000" stroke="none" d="M88.940315,90.134987  C97.057251,90.093666 105.175835,89.960938 113.289352,90.108192  C114.526688,90.130646 115.740501,91.449158 116.728996,92.608322  C116.492798,93.048431 116.009758,93.132248 116.009758,93.132248  C107.322792,93.098457 98.635818,93.064674 89.477081,92.654953  C88.983650,91.564346 88.961983,90.849663 88.940315,90.134987 z"></path><path fill="#BBFFF7" opacity="1.000000" stroke="none" d="M116.981743,85.608948  C107.974571,86.030014 98.959099,86.034149 89.475281,85.670258  C88.981262,84.588737 88.955597,83.875244 88.929932,83.161751  C97.051445,83.115273 105.174591,82.976707 113.292747,83.120132  C114.531471,83.142021 115.747124,84.468781 116.981743,85.608948 z"></path><path fill="#C4FBF4" opacity="1.000000" stroke="none" d="M105.068893,72.999329  C102.115059,72.397957 99.640732,71.793861 97.166412,71.189766  C98.698570,67.017761 102.188446,69.481773 104.739723,69.128685  C107.810898,68.703651 111.000511,68.882942 114.110641,69.140778  C115.070915,69.220390 115.938965,70.412369 116.849236,71.095032  C115.883675,71.724068 114.959412,72.802597 113.944611,72.895844  C111.166245,73.151138 108.349777,72.991776 105.068893,72.999329 z"></path><path fill="#0091C8" opacity="1.000000" stroke="none" d="M85.332367,47.840645  C82.740288,47.733192 80.480705,47.525208 77.992111,47.296146  C77.992111,44.931702 77.992111,42.830540 77.992111,39.916862  C79.990219,39.916862 82.051933,39.916862 84.561584,39.839302  C85.454506,39.829346 85.899483,39.896946 86.676872,40.031712  C87.008896,42.276470 87.008507,44.454067 87.011452,47.031204  C86.564812,47.533867 86.114838,47.636993 85.332367,47.840645 z"></path><path fill="#B7FEF5" opacity="1.000000" stroke="none" d="M110.937592,66.011414  C106.517166,65.404282 102.555702,64.797112 98.594238,64.189949  C98.653244,63.546856 98.712242,62.903763 98.771240,62.260670  C104.744286,62.619576 110.717339,62.978485 116.690384,63.337391  C116.752846,63.975006 116.815308,64.612617 116.877777,65.250237  C115.050697,65.503952 113.223625,65.757668 110.937592,66.011414 z"></path><path fill="#B8FEF5" opacity="1.000000" stroke="none" d="M106.498367,59.000359  C104.889450,58.731140 103.713539,58.462219 102.537628,58.193298  C102.573051,57.720917 102.608467,57.248539 102.643890,56.776157  C107.264153,55.387165 111.943520,55.852852 116.627831,56.473873  C116.694962,57.134670 116.762100,57.795467 116.829239,58.456264  C113.529945,58.637730 110.230659,58.819195 106.498367,59.000359 z"></path><path fill="#9BF4EC" opacity="1.000000" stroke="none" d="M88.548477,90.095596  C88.961983,90.849663 88.983650,91.564346 89.009537,92.637833  C87.951874,93.040894 86.889992,93.085144 85.434250,93.186478  C82.726494,92.989449 80.412598,92.735321 78.098701,92.481186  C78.084633,91.880531 78.070572,91.279869 78.056503,90.679207  C80.082222,90.449913 82.107941,90.220619 84.568329,89.956993  C86.054222,89.967178 87.105438,90.011688 88.548477,90.095596 z"></path><path fill="#9DF4ED" opacity="1.000000" stroke="none" d="M88.539330,83.117935  C88.955597,83.875244 88.981262,84.588737 89.007141,85.661530  C85.401550,86.020821 81.795731,86.020821 78.189911,86.020821  C78.147789,85.247185 78.105675,84.473549 78.063553,83.699913  C80.085449,83.469070 82.107338,83.238235 84.564163,82.977127  C86.048973,82.989281 87.098846,83.031700 88.539330,83.117935 z"></path><path fill="#F1EBED" opacity="1.000000" stroke="none" d="M116.117371,93.264267  C116.009758,93.132248 116.492798,93.048431 116.736435,93.023521  C116.728371,93.131172 116.476669,93.263733 116.117371,93.264267 z"></path><path fill="#6B2CC1" opacity="1.000000" stroke="none" d="M28.498665,122.881332  C28.159544,111.559174 28.248062,100.247993 28.230537,88.480019  C28.237917,81.533234 28.365053,75.043427 28.460049,68.553162  C28.525814,64.059959 30.452337,61.275604 36.058140,61.024979  C40.559498,61.093685 44.223640,61.161449 47.671074,61.453201  C46.296703,63.121052 45.139042,64.564911 43.533154,66.087875  C40.155827,66.166985 37.226730,66.166985 34.080940,66.166985  C34.080940,84.305168 34.080940,101.616173 34.028381,119.310371  C34.023079,120.711243 34.070332,121.728935 34.117584,122.746620  C32.387157,122.795181 30.656729,122.843735 28.498665,122.881332 z"></path><path fill="#FEAA15" opacity="1.000000" stroke="none" d="M47.887787,61.229218  C44.223640,61.161449 40.559498,61.093685 36.440437,60.950790  C37.139633,55.493587 40.780991,53.594646 45.882717,54.030926  C55.224316,54.829769 63.118050,51.880039 69.917557,45.077858  C70.291985,50.085281 70.391655,55.198627 69.843109,60.684601  C62.092514,61.114555 54.990150,61.171886 47.887787,61.229218 z"></path><path fill="#875CEF" opacity="1.000000" stroke="none" d="M117.244354,105.084267  C118.692543,105.104736 120.140732,105.125206 122.019394,105.217178  C122.486130,110.794037 122.522385,116.299400 122.553703,122.202065  C120.946388,122.606361 119.344017,122.613358 117.366318,122.168839  C116.959213,120.807922 116.927422,119.898506 116.957169,118.528687  C117.093925,113.740273 117.169136,109.412270 117.244354,105.084267 z"></path><path fill="#04B8F0" opacity="1.000000" stroke="none" d="M116.895638,118.989098  C116.927422,119.898506 116.959213,120.807922 116.973686,122.049789  C96.685707,122.451866 76.415039,122.521500 55.612144,122.196075  C55.032734,120.899666 54.985550,119.998306 55.343712,119.061844  C56.822063,118.959259 57.895077,118.891785 59.279869,118.865425  C60.010628,118.915596 60.429596,118.924652 61.270088,118.938843  C62.456783,117.596985 63.849159,116.265862 63.883713,114.900383  C64.083847,106.991516 63.963974,99.074547 64.385574,91.092926  C68.085419,90.439407 69.267403,91.799004 68.993439,95.067856  C68.773720,97.689453 69.018394,100.349968 69.056976,102.993217  C69.012169,103.442451 68.967354,103.891685 68.949089,105.026802  C69.305794,106.519188 69.635948,107.325699 70.017212,108.581024  C70.068321,112.256805 70.068321,115.483749 70.068321,118.880638  C72.133911,118.880638 73.590256,118.880638 75.470840,118.939835  C77.619278,118.938004 79.343483,118.876968 81.067680,118.815941  C81.466217,118.853531 81.864761,118.891129 82.955887,118.951019  C84.434402,118.929054 85.220314,118.884781 86.420158,118.899559  C88.226196,118.932899 89.618317,118.907188 91.264931,118.919685  C91.687584,118.923851 91.855736,118.889809 92.341461,118.903091  C93.082176,118.909042 93.505318,118.867676 94.375343,118.903778  C97.258316,118.937088 99.694412,118.892937 102.584579,118.908966  C107.657654,118.975792 112.276642,118.982445 116.895638,118.989098 z"></path><path fill="#1A7CBD" opacity="1.000000" stroke="none" d="M54.938366,119.096954  C54.985550,119.998306 55.032734,120.899666 55.167435,122.124580  C48.514278,122.581436 41.773598,122.714729 34.575253,122.797318  C34.070332,121.728935 34.023079,120.711243 34.489258,119.338852  C39.789127,118.929672 44.575562,118.875198 49.718422,118.861069  C51.047173,118.872620 52.019505,118.843834 53.316734,118.863892  C54.073875,118.974129 54.506119,119.035538 54.938366,119.096954 z"></path><path fill="#BAFCF5" opacity="1.000000" stroke="none" d="M69.332947,102.982391  C69.018394,100.349968 68.773720,97.689453 68.993439,95.067856  C69.267403,91.799004 68.085419,90.439407 64.016647,91.030594  C62.331234,91.641197 61.447937,92.246735 60.252922,92.891708  C59.314461,92.971695 58.687717,93.012245 58.018440,92.613617  C58.017128,90.119537 58.058346,88.064629 58.532185,86.004745  C60.789696,85.970703 62.795750,86.405670 64.389145,85.783623  C66.022446,85.145988 67.251953,83.474007 68.658188,82.254730  C67.253815,80.867516 66.071983,78.943573 64.382828,78.243195  C62.674107,77.534698 60.463184,78.016327 58.472195,78.013435  C50.772758,78.002281 50.815517,77.996788 48.886627,70.474342  C48.527561,69.074043 47.670662,67.801399 47.499634,66.377975  C55.330631,66.288094 62.705524,66.290085 70.080414,66.292076  C70.371284,70.188324 70.846573,74.081375 70.914024,77.981483  C71.047783,85.715569 70.956535,93.453552 70.962814,101.675018  C70.514526,102.430595 70.061714,102.701080 69.332947,102.982391 z"></path><path fill="#E31F69" opacity="1.000000" stroke="none" d="M82.542419,50.891876  C84.899971,52.086765 86.808228,53.188084 88.903534,54.397358  C86.923409,55.798889 83.981895,56.831470 83.431129,58.606056  C82.998230,60.000870 85.517319,62.311882 87.124222,64.845146  C86.453995,65.214828 85.047623,65.990555 83.116974,67.055466  C85.289757,67.767891 87.082535,68.355721 90.224648,69.385986  C87.020126,70.652321 85.099197,71.411423 83.076279,72.531235  C81.491692,72.957794 80.009102,73.023628 77.786942,73.122299  C77.786942,66.148613 77.663284,59.397373 77.975235,52.666321  C78.006973,51.981506 80.657722,51.418072 82.542419,50.891876 z"></path><path fill="#8958EF" opacity="1.000000" stroke="none" d="M70.163971,65.860031  C62.705524,66.290085 55.330631,66.288094 47.127747,66.265823  C45.526962,66.166618 44.754169,66.087692 43.981380,66.008774  C45.139042,64.564911 46.296703,63.121052 47.671074,61.453205  C54.990150,61.171886 62.092514,61.114555 69.677872,61.059341  C70.189751,62.516972 70.218643,63.972481 70.163971,65.860031 z"></path><path fill="#B7FEF2" opacity="1.000000" stroke="none" d="M116.957169,118.528687  C112.276642,118.982445 107.657654,118.975792 102.590622,118.457176  C102.094223,113.948563 102.045868,109.951920 101.997513,105.955276  C106.756737,105.647484 111.515968,105.339691 116.759773,105.058075  C117.169136,109.412270 117.093925,113.740273 116.957169,118.528687 z"></path><path fill="#FEB905" opacity="1.000000" stroke="none" d="M101.555199,105.976410  C102.045868,109.951920 102.094223,113.948563 102.136543,118.396996  C99.694412,118.892937 97.258316,118.937088 94.379700,118.453857  C93.963791,113.964455 93.990395,110.002426 94.016998,106.040398  C96.382301,106.026115 98.747597,106.011833 101.555199,105.976410 z"></path><path fill="#F74585" opacity="1.000000" stroke="none" d="M81.060860,118.403458  C79.343483,118.876968 77.619278,118.938004 75.452507,118.484505  C75.011803,113.720665 75.013672,109.471352 75.015541,105.222038  C79.037170,104.671135 81.757614,104.925804 80.116165,110.434654  C79.452347,112.662476 80.684608,115.455276 81.060860,118.403458 z"></path><path fill="#8758F2" opacity="1.000000" stroke="none" d="M91.010429,118.881485  C89.618317,118.907188 88.226196,118.932899 86.419846,118.448257  C85.982147,113.717888 85.958679,109.497879 85.935211,105.277870  C87.307205,105.212227 88.679199,105.146584 90.519318,105.536865  C91.057686,110.000992 91.127922,114.009201 91.128372,118.228462  C91.058586,118.439514 91.010429,118.881477 91.010429,118.881485 z"></path><path fill="#D8427F" opacity="1.000000" stroke="none" d="M74.658798,105.140594  C75.013672,109.471352 75.011803,113.720665 75.028259,118.425308  C73.590256,118.880638 72.133911,118.880638 70.068321,118.880638  C70.068321,115.483749 70.068321,112.256805 70.162399,108.275528  C70.631371,106.727753 71.006256,105.934296 71.381142,105.140831  C72.354774,105.113602 73.328415,105.086372 74.658798,105.140594 z"></path><path fill="#6B2DC2" opacity="1.000000" stroke="none" d="M85.516312,105.214272  C85.958679,109.497879 85.982147,113.717888 86.005920,118.389206  C85.220314,118.884781 84.434402,118.929054 83.255928,118.927063  C82.867378,115.431976 82.685555,111.967316 82.977196,108.542976  C83.077888,107.360596 84.356735,106.278549 85.516312,105.214272 z"></path><path fill="#BDF6DF" opacity="1.000000" stroke="none" d="M91.198151,118.017410  C91.127922,114.009201 91.057686,110.000992 90.932373,105.540451  C91.777512,105.226631 92.677734,105.365158 93.797470,105.772041  C93.990395,110.002426 93.963791,113.964455 93.932816,118.376404  C93.505318,118.867676 93.082176,118.909042 92.235703,118.733597  C91.648277,118.300339 91.443535,118.133881 91.198151,118.017410 z"></path><path fill="#BAFCF5" opacity="1.000000" stroke="none" d="M70.995392,105.096664  C71.006256,105.934296 70.631371,106.727753 70.111282,107.826706  C69.635948,107.325699 69.305794,106.519188 69.017380,105.360199  C69.575951,105.022636 70.092796,105.037567 70.995392,105.096664 z"></path><path fill="#97F2EC" opacity="1.000000" stroke="none" d="M43.533154,66.087875  C44.754169,66.087692 45.526962,66.166618 46.671638,66.357697  C47.670662,67.801399 48.527561,69.074043 48.886627,70.474342  C50.815517,77.996788 50.772758,78.002281 58.472195,78.013435  C60.463184,78.016327 62.674107,77.534698 64.382828,78.243195  C66.071983,78.943573 67.253815,80.867516 68.658188,82.254730  C67.251953,83.474007 66.022446,85.145988 64.389145,85.783623  C62.795750,86.405670 60.789696,85.970703 58.473953,85.598755  C58.268616,80.951607 55.277084,82.090851 52.540718,82.069870  C48.867538,81.562752 49.237804,83.870613 49.243389,85.856392  C49.274288,96.844528 49.320820,107.832619 49.362000,118.820724  C44.575562,118.875198 39.789127,118.929672 34.541817,118.955658  C34.080940,101.616173 34.080940,84.305168 34.080940,66.166985  C37.226730,66.166985 40.155827,66.166985 43.533154,66.087875 z"></path><path fill="#885DF3" opacity="1.000000" stroke="none" d="M52.951382,82.135895  C55.277084,82.090851 58.268616,80.951607 58.041336,85.603729  C58.058346,88.064629 58.017128,90.119537 57.964577,93.058006  C58.291523,102.235809 58.629807,110.530060 58.968086,118.824303  C57.895077,118.891785 56.822063,118.959259 55.343712,119.061844  C54.506119,119.035538 54.073875,118.974129 53.318909,118.411087  C52.981251,105.984932 52.966316,94.060417 52.951382,82.135895 z"></path><path fill="#0094CB" opacity="1.000000" stroke="none" d="M60.564640,92.852280  C61.447937,92.246735 62.331234,91.641197 63.583462,91.097992  C63.963974,99.074547 64.083847,106.991516 63.883713,114.900383  C63.849159,116.265862 62.456783,117.596985 61.303925,118.477310  C60.799046,109.624519 60.681843,101.238403 60.564640,92.852280 z"></path><path fill="#80E3E7" opacity="1.000000" stroke="none" d="M60.252922,92.891708  C60.681843,101.238403 60.799046,109.624519 60.882408,118.472168  C60.429596,118.924652 60.010628,118.915596 59.279873,118.865425  C58.629807,110.530060 58.291523,102.235809 58.007107,93.497177  C58.687717,93.012245 59.314461,92.971695 60.252922,92.891708 z"></path><path fill="#9AEDEC" opacity="1.000000" stroke="none" d="M91.128372,118.228462  C91.443535,118.133881 91.648277,118.300339 91.918137,118.686272  C91.855736,118.889809 91.687584,118.923851 91.264931,118.919678  C91.010429,118.881477 91.058586,118.439514 91.128372,118.228462 z"></path><path fill="#7349CD" opacity="1.000000" stroke="none" d="M52.540718,82.069870  C52.966316,94.060417 52.981251,105.984932 52.994011,118.362259  C52.019505,118.843834 51.047173,118.872620 49.718422,118.861069  C49.320820,107.832619 49.274288,96.844528 49.243389,85.856392  C49.237804,83.870613 48.867538,81.562752 52.540718,82.069870 z"></path></svg>