<svg xmlns="http://www.w3.org/2000/svg" xmlns:xlink="http://www.w3.org/1999/xlink" id="Layer_1" x="0px" y="0px" width="100%" viewBox="0 0 211 201" xml:space="preserve"><path fill="#101010" opacity="1.000000" stroke="none" d="M212.000000,29.000000  C212.000000,39.687561 212.000000,50.375122 211.658936,61.464180  C209.898026,60.774929 208.587830,59.474300 207.024780,58.657623  C205.694244,57.962433 203.835251,57.134819 202.618530,57.553318  C195.347076,60.054409 194.032898,66.395103 199.258316,71.829399  C202.049057,74.731674 204.561188,76.145271 208.000488,72.776207  C208.976791,71.819839 210.647659,71.572502 212.000000,71.000000  C212.000000,81.020897 212.000000,91.041786 211.660370,101.464706  C210.366776,101.231445 209.250916,100.748184 208.486954,99.934525  C205.207382,96.441559 202.188583,96.944557 199.206451,100.287682  C197.992844,101.648216 196.387039,102.783524 195.578903,104.342331  C194.915054,105.622810 194.448181,107.969070 195.143936,108.815590  C197.520462,111.707054 200.136429,114.722664 203.331802,116.450211  C204.486908,117.074707 207.521011,114.172867 209.727417,112.933014  C210.435974,112.534851 211.239777,112.306206 212.000000,112.000000  C212.000000,121.687561 212.000000,131.375122 211.654205,141.462158  C210.597519,141.451279 209.927582,140.928619 209.168015,140.651871  C206.995270,139.860214 203.811935,137.884918 202.771515,138.674652  C199.469681,141.180954 196.930023,144.706375 194.201050,147.927094  C193.952118,148.220901 194.251312,149.356583 194.645554,149.757706  C197.538879,152.701401 200.184021,156.155060 203.658905,158.116745  C204.873672,158.802521 208.193054,155.729553 210.572556,154.411377  C210.994766,154.177475 211.521515,154.132309 212.000000,154.000000  C212.000000,163.020889 212.000000,172.041794 211.647461,181.467163  C210.679016,181.624207 209.997864,181.474655 209.457214,181.114288  C203.423645,177.092804 203.429306,177.083862 198.343307,182.157074  C197.517380,182.980911 196.751022,183.875671 195.858978,184.619995  C192.407303,187.499969 192.414124,190.164139 195.724289,193.346252  C198.425903,195.943329 200.594879,199.094498 203.000000,202.000000  C177.645767,202.000000 152.291550,202.000000 126.538780,201.652740  C126.759743,199.536514 127.379250,197.767532 127.999374,195.999283  C128.000000,196.000000 127.998512,195.998779 128.361572,195.981094  C131.005142,193.683701 135.041504,191.429688 135.075333,189.117096  C135.109573,186.775940 131.184204,184.376846 128.800644,181.865021  C128.364975,181.520279 128.161133,181.280289 127.980751,180.601288  C127.928337,179.655640 127.891678,179.115692 128.118805,178.353638  C130.328217,177.342422 132.273865,176.553360 134.496307,175.702438  C135.477386,175.409897 136.181656,175.179199 137.183685,175.122742  C142.729034,179.759079 142.729248,179.759293 147.656662,174.841614  C148.587646,173.912445 149.430466,172.869995 150.462448,172.071762  C153.341293,169.844940 153.152725,167.485519 151.079010,164.623779  C153.764328,161.525635 156.344101,158.744629 159.231049,156.142197  C163.550507,158.436890 169.882553,155.536728 172.235306,149.823059  C174.142960,145.190277 170.338623,143.502319 166.942032,141.599091  C170.546783,131.020874 171.834503,120.640633 170.386307,109.835701  C168.744583,97.586655 163.208496,87.199249 156.449219,77.134018  C159.585510,79.148491 160.942841,77.395340 162.435638,74.983414  C164.981369,73.354774 167.382080,71.964043 169.315536,70.090973  C173.130051,66.395599 172.549835,64.169296 167.632767,61.481323  C167.132278,60.043633 166.422989,58.059013 165.906784,58.108028  C159.520660,58.714371 153.162674,59.617123 146.582062,60.471447  C149.594833,68.398163 149.594833,68.398163 144.706482,68.975136  C138.877228,65.518394 133.708511,60.975857 127.729271,59.263359  C119.819519,56.997955 111.275322,56.947769 103.071495,55.611710  C104.489433,53.621605 105.750099,51.881401 107.207161,50.325066  C111.155487,46.107700 111.074577,44.490814 106.475250,39.976280  C102.421944,35.997719 101.515099,36.034950 97.132141,40.368946  C96.422577,41.070591 95.756905,41.820450 95.012596,42.482422  C92.834427,44.419636 92.831596,46.258804 94.828033,48.442207  C97.028641,50.848919 98.957001,53.504570 100.667648,56.245674  C91.516838,57.895107 82.994919,60.089634 75.619118,66.040390  C73.851311,66.833641 72.357124,67.554550 71.043823,68.521202  C59.495094,77.021637 52.410240,88.629631 47.546165,101.923416  C39.432259,96.684021 39.431583,96.683380 32.665257,103.838791  C32.094189,104.442696 31.367266,104.981430 31.029264,105.699440  C30.717319,106.362099 30.463785,107.570190 30.815924,107.945274  C33.541405,110.848305 36.111931,114.102531 39.410282,116.156029  C40.648823,116.927124 43.687992,114.806030 45.962059,114.465027  C46.971386,122.093063 47.924885,129.259583 48.913036,136.822906  C49.786671,139.476288 50.625656,141.732880 51.444595,144.129669  C51.498226,144.461578 51.514305,144.658112 51.102631,144.839203  C49.735130,144.284454 48.605957,143.905853 47.760918,143.191269  C39.637585,136.322021 39.624210,136.307571 32.380032,144.123398  C32.042976,144.487045 31.416475,144.834930 31.404814,145.205292  C31.344713,147.114365 30.652905,149.845261 31.630178,150.788574  C34.644344,153.698029 38.307938,155.938049 41.767574,158.369370  C41.895283,158.459091 42.588333,157.885483 42.915962,157.527664  C46.138470,154.008255 49.339367,150.469040 52.739746,147.244202  C54.434284,149.942627 55.935471,152.332306 57.630714,155.009689  C58.262630,156.094986 58.700481,156.892578 58.968971,158.000732  C57.112453,160.128525 55.467846,161.987579 53.729927,163.754852  C49.108475,168.454361 49.091602,169.457901 53.757500,174.250580  C54.681892,175.200089 55.629814,176.126846 56.574272,177.056580  C59.170189,179.612091 61.757881,179.616806 64.403183,177.093307  C66.913956,174.698151 69.476509,172.357254 72.347435,170.075073  C75.133034,171.766800 77.587502,173.375977 79.822784,175.230133  C79.402466,176.316940 79.201317,177.158783 78.831367,178.285645  C76.108383,181.047104 73.554192,183.523560 70.659531,186.075745  C67.823463,187.610443 66.868912,189.170792 70.284073,191.168076  C72.712090,193.557434 74.856049,195.778717 77.000000,198.399994  C77.000000,199.866653 77.000000,200.933334 77.000000,202.000000  C65.645775,202.000000 54.291546,202.000000 42.536232,201.657074  C43.985989,199.040924 45.814102,196.748734 47.692127,194.498184  C52.507050,188.728149 52.964127,188.572052 48.045898,183.548141  C40.698380,176.042770 40.439526,176.041367 33.145618,183.354660  C32.441902,184.060257 31.761827,184.791107 31.033073,185.469742  C28.378841,187.941391 28.688200,190.244415 31.168131,192.705826  C34.200119,195.715179 37.063633,198.894302 40.000000,202.000000  C27.833334,202.000000 15.662171,201.819962 3.503085,202.123550  C0.368862,202.201813 1.048076,200.654388 1.361429,198.482346  C4.492969,195.752686 7.386003,193.669846 9.944295,191.235260  C10.561893,190.647522 10.599024,188.411896 10.001990,187.762497  C7.172285,184.684494 4.030567,181.893341 0.999998,179.000000  C1.000000,171.979050 1.000000,164.958099 1.337404,157.402832  C4.107869,154.712753 6.763602,152.747665 8.858025,150.301895  C9.632812,149.397125 9.753614,146.746231 9.022388,145.955704  C6.633598,143.373215 3.714892,141.280869 0.999999,139.000000  C1.000000,131.312424 1.000000,123.624847 1.338111,115.402649  C3.666171,113.176338 5.971533,111.725754 7.521611,109.697845  C8.379864,108.575027 8.736251,105.848251 7.990064,104.957085  C6.052385,102.642883 3.379489,100.944275 1.000000,99.000000  C1.000000,90.979103 1.000000,82.958199 1.337663,74.402657  C3.610559,72.172531 5.808841,70.683052 7.367559,68.692711  C8.121549,67.729935 8.335400,65.235863 7.644237,64.462509  C5.756065,62.349804 3.257068,60.783012 1.000000,59.000000  C1.000000,39.666592 1.000000,20.333183 1.000000,1.000000  C4.756680,1.000000 8.399164,1.000000 12.454123,1.366502  C11.698985,6.778190 16.841097,13.561495 20.938932,12.381761  C24.886644,11.245246 27.986244,5.424669 27.000000,1.000000  C35.687565,1.000000 44.375126,1.000000 53.467499,1.358994  C51.915531,6.206091 54.998787,8.581332 57.955795,10.715080  C59.223507,11.629848 61.388165,12.358774 62.726269,11.913351  C66.228378,10.747584 68.833282,4.767708 68.000000,1.000000  C76.687561,1.000000 85.375130,1.000000 94.464615,1.366738  C92.797577,5.856825 95.267639,8.540745 98.232697,10.456900  C99.721542,11.419058 102.666122,11.852242 103.989616,11.010634  C107.417046,8.831138 110.799690,6.047110 109.000000,1.000000  C117.354233,1.000000 125.708466,1.000000 134.531586,1.409921  C135.042572,2.976673 134.911453,4.172091 135.158951,5.283164  C135.929199,8.740954 141.292816,13.126499 143.684830,12.381196  C147.471695,11.201282 150.894226,5.033193 150.000000,1.000000  C158.354233,1.000000 166.708466,1.000000 175.531631,1.409918  C176.041992,2.972859 175.908035,4.165285 176.156631,5.271761  C177.013626,9.086200 182.562164,13.315218 185.079605,12.185884  C188.841949,10.498090 191.579391,5.326029 191.000000,1.000000  C197.926147,1.000000 204.852310,1.000000 212.000000,1.000000  C212.000000,7.685770 212.000000,14.373973 211.658951,21.463869  C209.775192,20.666271 208.386627,18.890480 206.647568,18.425468  C204.809845,17.934072 202.050888,17.980354 200.742386,19.060902  C198.463104,20.943079 194.584122,22.759096 196.776764,26.985241  C199.926987,33.057095 204.185379,33.943172 209.749741,29.930576  C210.390381,29.468603 211.244736,29.303011 212.000000,29.000000 M154.442322,185.060867  C153.900162,187.073257 152.260025,190.134186 153.006546,190.915894  C156.181549,194.240524 160.051651,196.905350 163.721115,199.742325  C163.913315,199.890915 164.667511,199.498337 165.035995,199.202911  C167.352463,197.345810 169.715958,195.534836 171.905533,193.535202  C174.547226,191.122681 174.569641,188.595749 172.258484,185.719543  C164.400787,175.940781 163.656204,175.842545 154.442322,185.060867 M22.507948,177.984604  C24.737225,175.751999 27.118250,173.644821 29.119307,171.223602  C29.893795,170.286484 30.519581,168.050430 29.993406,167.413071  C27.378626,164.245773 24.465925,161.291290 21.388020,158.567093  C20.763678,158.014496 18.748260,158.398392 17.758718,158.991837  C7.806126,164.960449 7.441703,171.366440 16.799835,178.006927  C18.026026,178.877014 20.246365,178.346100 22.507948,177.984604 M177.492920,163.006790  C171.500122,169.031204 171.500153,169.031174 177.662552,175.162781  C178.133698,175.631592 178.621826,176.084900 179.071487,176.573517  C182.069809,179.831696 185.016235,179.729614 187.994858,176.518829  C189.463104,174.936142 191.268707,173.606033 192.462448,171.849548  C193.307266,170.606491 194.237396,168.151855 193.653046,167.425034  C191.008194,164.135330 188.148834,160.779434 184.659103,158.560059  C183.673889,157.933487 180.290329,161.078033 177.492920,163.006790 M192.994064,125.613052  C190.777679,123.361908 188.717438,120.916161 186.270264,118.952652  C185.250275,118.134262 183.098892,117.676445 181.985886,118.190056  C173.322113,122.188011 172.273560,127.989365 179.036560,134.425888  C180.593048,135.907242 182.807190,137.532059 184.755127,137.578995  C187.959534,137.656204 193.342834,129.944885 192.994064,125.613052 M16.556370,135.976089  C18.649757,136.132401 21.508514,137.222366 22.683908,136.258820  C25.495234,133.954224 27.523821,130.690552 29.827290,127.781494  C29.961216,127.612358 29.843374,127.040916 29.650940,126.846596  C26.536699,123.701881 23.710985,120.069077 20.042284,117.809273  C19.048120,117.196892 15.234540,120.491486 13.151635,122.455826  C8.757368,126.599976 8.889050,128.306015 13.204189,132.699936  C14.132994,133.645691 15.085863,134.567841 16.556370,135.976089 M28.502380,85.170418  C26.573147,82.939789 24.875338,80.421783 22.615353,78.601875  C21.513903,77.714905 18.843786,77.378632 17.791098,78.106094  C15.244470,79.865929 13.040235,82.247314 11.111752,84.703079  C10.487511,85.497993 10.641274,87.702744 11.321876,88.569290  C13.149319,90.895996 15.333137,92.995811 17.631433,94.872154  C18.484949,95.568962 20.570419,96.027649 21.204203,95.508514  C24.397638,92.892761 28.779026,91.049942 28.502380,85.170418 M176.488327,90.013123  C177.611374,91.445053 178.463303,93.364532 179.929306,94.179703  C181.586594,95.101227 184.354111,95.966995 185.646881,95.195282  C188.261002,93.634804 190.417053,91.113449 192.303635,88.638901  C192.915390,87.836494 192.543106,85.660034 191.863602,84.595512  C186.329849,75.926552 183.198837,75.757996 176.217285,83.216034  C174.148010,85.426529 173.481674,87.298943 176.488327,90.013123 M47.592522,63.145363  C46.068653,61.616470 44.715164,59.836842 42.961926,58.645504  C41.762802,57.830696 39.754246,57.144886 38.540611,57.587860  C31.238987,60.252930 29.947609,66.499023 35.315681,71.841164  C37.522156,74.036972 39.665203,76.143402 43.072315,74.190956  C47.509911,71.648010 49.282173,67.909897 47.592522,63.145363 M54.744846,49.572304  C57.081047,51.164906 60.388504,54.610310 61.566219,53.992943  C64.742027,52.328152 67.436485,49.193325 69.361671,46.053146  C69.893364,45.185894 67.254486,42.089993 65.724174,40.315144  C63.791214,38.073299 61.492733,35.347683 58.310944,38.362621  C55.371094,41.148312 50.707008,43.586464 54.744846,49.572304 M191.911560,47.488815  C193.493271,42.060680 188.661942,40.313702 185.755112,37.980019  C184.804077,37.216492 181.350525,39.242748 179.243088,40.370117  C177.985214,41.043022 176.842606,42.300896 176.166046,43.571548  C175.645248,44.549656 175.450317,46.210644 175.935623,47.134510  C179.817413,54.524021 184.312378,55.200645 190.057800,49.440769  C190.528091,48.969299 190.990417,48.489876 191.911560,47.488815 M15.535657,39.964558  C14.156839,42.080017 11.135264,45.172142 11.704429,46.129478  C13.476145,49.109528 16.295038,51.903427 19.371086,53.451847  C20.563198,54.051929 23.722103,51.353699 25.646946,49.751793  C28.824835,47.107067 28.742603,44.144787 25.746506,41.237759  C22.890724,38.466881 20.288904,34.619434 15.535657,39.964558 M147.501205,50.998249  C149.676376,48.895172 152.096786,46.830624 150.427063,43.323360  C147.325974,36.809494 142.478195,36.017784 137.406860,41.074154  C135.098068,43.376152 132.694809,45.261570 136.177170,48.796860  C141.949829,54.657246 142.595093,55.034264 147.501205,50.998249 M129.401199,27.904194  C130.823120,24.251692 125.752716,17.012474 121.867470,17.148010  C118.450844,17.267199 113.315666,24.014744 114.574272,26.731165  C117.857307,33.816853 122.872131,34.714195 128.294083,29.184772  C128.525024,28.949245 128.741821,28.699856 129.401199,27.904194 M73.289749,26.071871  C74.213478,27.234728 75.046364,28.485937 76.076607,29.545195  C80.610657,34.206959 82.276634,34.214893 86.756485,29.742533  C90.957527,25.548517 90.941978,25.363203 85.801788,20.307444  C84.971970,19.491257 84.227570,18.355940 83.222420,18.008760  C81.950043,17.569281 79.834282,17.164679 79.162491,17.832188  C76.899254,20.080996 75.114746,22.811596 73.289749,26.071871 M38.339939,32.459229  C42.426464,34.185463 44.607094,31.227432 46.576126,28.691254  C47.580353,27.397772 48.408875,24.311390 47.743206,23.670910  C45.160583,21.186020 41.811260,17.468559 38.994705,17.669909  C32.729259,18.117815 31.018347,25.527515 35.533600,30.025908  C36.236717,30.726398 36.984909,31.381647 38.339939,32.459229 M157.954224,29.453741  C160.213104,30.666174 162.904602,33.344852 164.653488,32.828835  C171.091431,30.929274 172.111710,24.670597 167.464127,19.902958  C164.756195,17.125072 162.308655,15.889856 159.174591,19.282761  C156.481171,22.198654 152.657104,24.747343 157.954224,29.453741 z"></path><path fill="#101010" opacity="1.000000" stroke="none" d="M77.468658,202.000000  C77.000000,200.933334 77.000000,199.866653 77.301743,198.577362  C79.415710,198.645355 81.871826,199.820892 82.918465,199.059326  C85.960281,196.846054 88.563934,193.966476 91.053261,191.099762  C91.737709,190.311539 92.018105,188.185364 91.460793,187.468369  C88.176804,183.243408 85.228775,178.399826 79.000168,178.000610  C79.201317,177.158783 79.402466,176.316940 80.112976,175.241516  C81.343033,175.261963 82.063713,175.516022 83.128426,175.957611  C87.617088,177.393188 91.761711,178.641235 96.310486,180.019531  C102.832245,180.525223 108.949844,180.900650 115.040787,181.690430  C114.090385,184.671326 111.664581,188.090515 112.541328,189.634995  C114.664833,193.375809 118.042778,196.634903 121.565872,199.191437  C122.464622,199.843613 125.788902,197.153214 127.998749,195.998566  C127.379250,197.767532 126.759743,199.536514 126.070122,201.652740  C109.979103,202.000000 93.958214,202.000000 77.468658,202.000000 z"></path><path fill="#131313" opacity="1.000000" stroke="none" d="M40.333332,202.000000  C37.063633,198.894302 34.200119,195.715179 31.168131,192.705826  C28.688200,190.244415 28.378841,187.941391 31.033073,185.469742  C31.761827,184.791107 32.441902,184.060257 33.145618,183.354660  C40.439526,176.041367 40.698380,176.042770 48.045898,183.548141  C52.964127,188.572052 52.507050,188.728149 47.692127,194.498184  C45.814102,196.748734 43.985989,199.040924 42.067574,201.657074  C41.555553,202.000000 41.111111,202.000000 40.333332,202.000000 z"></path><path fill="#131313" opacity="1.000000" stroke="none" d="M203.333328,202.000000  C200.594879,199.094498 198.425903,195.943329 195.724289,193.346252  C192.414124,190.164139 192.407303,187.499969 195.858978,184.619995  C196.751022,183.875671 197.517380,182.980911 198.343307,182.157074  C203.429306,177.083862 203.423645,177.092804 209.457214,181.114288  C209.997864,181.474655 210.679016,181.624207 211.647461,181.935822  C212.000000,186.024551 212.000000,190.049088 211.663513,194.603943  C209.218002,197.422836 207.108994,199.711411 205.000000,202.000000  C204.555557,202.000000 204.111099,202.000000 203.333328,202.000000 z"></path><path fill="#131313" opacity="1.000000" stroke="none" d="M212.000000,153.539368  C211.521515,154.132309 210.994766,154.177475 210.572556,154.411377  C208.193054,155.729553 204.873672,158.802521 203.658905,158.116745  C200.184021,156.155060 197.538879,152.701401 194.645554,149.757706  C194.251312,149.356583 193.952118,148.220901 194.201050,147.927094  C196.930023,144.706375 199.469681,141.180954 202.771515,138.674652  C203.811935,137.884918 206.995270,139.860214 209.168015,140.651871  C209.927582,140.928619 210.597519,141.451279 211.654205,141.930817  C212.000000,145.692902 212.000000,149.385818 212.000000,153.539368 z"></path><path fill="#131313" opacity="1.000000" stroke="none" d="M212.000000,111.545891  C211.239777,112.306206 210.435974,112.534851 209.727417,112.933014  C207.521011,114.172867 204.486908,117.074707 203.331802,116.450211  C200.136429,114.722664 197.520462,111.707054 195.143936,108.815590  C194.448181,107.969070 194.915054,105.622810 195.578903,104.342331  C196.387039,102.783524 197.992844,101.648216 199.206451,100.287682  C202.188583,96.944557 205.207382,96.441559 208.486954,99.934525  C209.250916,100.748184 210.366776,101.231445 211.660370,101.933365  C212.000000,105.030594 212.000000,108.061188 212.000000,111.545891 z"></path><path fill="#131313" opacity="1.000000" stroke="none" d="M212.000000,70.550018  C210.647659,71.572502 208.976791,71.819839 208.000488,72.776207  C204.561188,76.145271 202.049057,74.731674 199.258316,71.829399  C194.032898,66.395103 195.347076,60.054409 202.618530,57.553318  C203.835251,57.134819 205.694244,57.962433 207.024780,58.657623  C208.587830,59.474300 209.898026,60.774929 211.658936,61.932838  C212.000000,64.700012 212.000000,67.400032 212.000000,70.550018 z"></path><path fill="#131313" opacity="1.000000" stroke="none" d="M212.000000,28.562500  C211.244736,29.303011 210.390381,29.468603 209.749741,29.930576  C204.185379,33.943172 199.926987,33.057095 196.776764,26.985241  C194.584122,22.759096 198.463104,20.943079 200.742386,19.060902  C202.050888,17.980354 204.809845,17.934072 206.647568,18.425468  C208.386627,18.890480 209.775192,20.666271 211.658951,21.932781  C212.000000,24.041666 212.000000,26.083334 212.000000,28.562500 z"></path><path fill="#131313" opacity="1.000000" stroke="none" d="M26.535349,1.000000  C27.986244,5.424669 24.886644,11.245246 20.938932,12.381761  C16.841097,13.561495 11.698985,6.778190 12.933298,1.366502  C17.356899,1.000000 21.713799,1.000000 26.535349,1.000000 z"></path><path fill="#131313" opacity="1.000000" stroke="none" d="M149.533875,1.000000  C150.894226,5.033193 147.471695,11.201282 143.684830,12.381196  C141.292816,13.126499 135.929199,8.740954 135.158951,5.283164  C134.911453,4.172091 135.042572,2.976673 135.000244,1.409921  C139.689255,1.000000 144.378510,1.000000 149.533875,1.000000 z"></path><path fill="#131313" opacity="1.000000" stroke="none" d="M190.533875,1.000000  C191.579391,5.326029 188.841949,10.498090 185.079605,12.185884  C182.562164,13.315218 177.013626,9.086200 176.156631,5.271761  C175.908035,4.165285 176.041992,2.972859 176.000275,1.409918  C180.689255,1.000000 185.378510,1.000000 190.533875,1.000000 z"></path><path fill="#131313" opacity="1.000000" stroke="none" d="M67.535355,1.000000  C68.833282,4.767708 66.228378,10.747584 62.726269,11.913351  C61.388165,12.358774 59.223507,11.629848 57.955795,10.715080  C54.998787,8.581332 51.915531,6.206091 53.936157,1.358994  C58.356899,1.000000 62.713802,1.000000 67.535355,1.000000 z"></path><path fill="#131313" opacity="1.000000" stroke="none" d="M108.535355,1.000000  C110.799690,6.047110 107.417046,8.831138 103.989616,11.010634  C102.666122,11.852242 99.721542,11.419058 98.232697,10.456900  C95.267639,8.540745 92.797577,5.856825 94.933266,1.366738  C99.356903,1.000000 103.713799,1.000000 108.535355,1.000000 z"></path><path fill="#131313" opacity="1.000000" stroke="none" d="M0.999998,179.468277  C4.030567,181.893341 7.172285,184.684494 10.001990,187.762497  C10.599024,188.411896 10.561893,190.647522 9.944295,191.235260  C7.386003,193.669846 4.492969,195.752686 1.361429,197.982346  C1.000000,191.978851 1.000000,185.957703 0.999998,179.468277 z"></path><path fill="#131313" opacity="1.000000" stroke="none" d="M0.999999,139.467941  C3.714892,141.280869 6.633598,143.373215 9.022388,145.955704  C9.753614,146.746231 9.632812,149.397125 8.858025,150.301895  C6.763602,152.747665 4.107869,154.712753 1.337404,156.934265  C1.000000,151.311966 1.000000,145.623917 0.999999,139.467941 z"></path><path fill="#131313" opacity="1.000000" stroke="none" d="M1.000000,99.466858  C3.379489,100.944275 6.052385,102.642883 7.990064,104.957085  C8.736251,105.848251 8.379864,108.575027 7.521611,109.697845  C5.971533,111.725754 3.666171,113.176338 1.338111,114.934006  C1.000000,109.977905 1.000000,104.955818 1.000000,99.466858 z"></path><path fill="#131313" opacity="1.000000" stroke="none" d="M1.000000,59.466118  C3.257068,60.783012 5.756065,62.349804 7.644237,64.462509  C8.335400,65.235863 8.121549,67.729935 7.367559,68.692711  C5.808841,70.683052 3.610559,72.172531 1.337663,73.934006  C1.000000,69.310745 1.000000,64.621490 1.000000,59.466118 z"></path><path fill="#101010" opacity="1.000000" stroke="none" d="M205.497910,202.000000  C207.108994,199.711411 209.218002,197.422836 211.663513,195.067139  C212.000000,197.247635 212.000000,199.495270 212.000000,202.000000  C210.001862,202.000000 207.998840,202.000000 205.497910,202.000000 z"></path><path fill="#672D9F" opacity="1.000000" stroke="none" d="M75.976608,66.081985  C82.994919,60.089634 91.516838,57.895107 101.001770,56.296562  C102.116066,56.084194 102.559937,56.014835 103.003807,55.945480  C111.275322,56.947769 119.819519,56.997955 127.729271,59.263359  C133.708511,60.975857 138.877228,65.518394 144.667084,69.315796  C143.789841,70.963310 142.784592,72.283974 141.491486,73.196922  C136.068558,77.025574 130.568512,80.745438 125.080292,84.481033  C102.990952,99.516319 80.895515,114.542664 58.597591,129.230698  C52.008030,110.866570 54.067318,93.906342 65.216919,78.329247  C68.364098,73.932327 72.366470,70.147530 75.976608,66.081985 z"></path><path fill="#F7DD73" opacity="1.000000" stroke="none" d="M158.923889,155.963638  C156.344101,158.744629 153.764328,161.525635 150.780457,164.780060  C145.879547,168.485168 141.382721,171.716843 136.885910,174.948517  C136.181656,175.179199 135.477386,175.409897 134.471985,175.250000  C134.083908,169.159256 133.996994,163.459076 133.984589,157.318451  C134.059082,135.330490 134.059082,113.783005 134.059082,91.940041  C142.966232,91.940041 150.949249,91.940041 159.075272,92.311295  C159.373550,93.984665 159.528809,95.286789 159.611053,97.090332  C159.585495,106.115814 159.632935,114.639862 159.569473,123.607635  C159.528122,134.224716 159.597672,144.398071 159.445557,154.900345  C159.123901,155.474060 159.023895,155.718842 158.923889,155.963638 z"></path><path fill="#EB477D" opacity="1.000000" stroke="none" d="M58.802330,129.572311  C80.895515,114.542664 102.990952,99.516319 125.080292,84.481033  C130.568512,80.745438 136.068558,77.025574 141.491486,73.196922  C142.784592,72.283974 143.789841,70.963310 144.966904,69.489525  C149.594833,68.398163 149.594833,68.398163 146.582062,60.471447  C153.162674,59.617123 159.520660,58.714371 165.906784,58.108028  C166.422989,58.059013 167.132278,60.043633 167.415085,61.738228  C165.412003,66.596550 163.745697,70.799896 162.079376,75.003235  C160.942841,77.395340 159.585510,79.148491 156.480164,77.164459  C156.142181,77.507576 156.029282,77.558838 156.491028,77.431137  C156.438873,75.323120 156.080933,73.096825 152.876129,75.003387  C151.947311,75.606285 151.308792,76.108475 150.360092,76.746620  C146.594772,79.196732 143.116104,81.476646 139.688217,83.830528  C113.757828,101.636475 87.837402,119.456932 61.573799,137.418625  C57.977356,139.706070 54.720997,141.847763 51.464638,143.989456  C50.625656,141.732880 49.786671,139.476288 49.237541,136.657837  C52.619038,133.921417 55.710682,131.746872 58.802330,129.572311 z"></path><path fill="#9372E1" opacity="1.000000" stroke="none" d="M150.670258,76.610664  C151.308792,76.108475 151.947311,75.606285 153.138458,75.200623  C154.470490,76.051056 155.249878,76.804947 156.029282,77.558838  C156.029282,77.558838 156.142181,77.507576 156.111221,77.477135  C163.208496,87.199249 168.744583,97.586655 170.386307,109.835701  C171.834503,120.640633 170.546783,131.020874 166.687454,141.829681  C164.162888,146.487625 161.915070,150.529526 159.667236,154.571426  C159.597672,144.398071 159.528122,134.224716 159.837799,123.378471  C162.730820,113.945107 163.492294,105.220375 159.684067,96.588905  C159.528809,95.286789 159.373550,93.984665 159.035767,91.958313  C156.125580,86.359604 153.397919,81.485130 150.670258,76.610664 z"></path><path fill="#F6DC73" opacity="1.000000" stroke="none" d="M82.784393,175.770065  C82.063713,175.516022 81.343033,175.261963 80.332153,174.996521  C77.587502,173.375977 75.133034,171.766800 72.191528,169.777161  C67.515770,165.494492 63.327053,161.592331 59.138336,157.690155  C58.700481,156.892578 58.262630,156.094986 57.700249,154.580719  C57.575722,151.092117 57.575722,148.320190 57.575722,145.223083  C61.214607,145.030075 64.159271,144.873886 67.559570,144.782684  C72.787804,144.847672 77.560402,144.847672 83.091858,144.847672  C83.091858,149.548874 83.091858,153.652664 83.016434,158.234390  C82.888802,164.398239 82.836601,170.084152 82.784393,175.770065 z"></path><path fill="#8E6DE8" opacity="1.000000" stroke="none" d="M58.597595,129.230698  C55.710682,131.746872 52.619038,133.921417 49.202888,136.261047  C47.924885,129.259583 46.971386,122.093063 46.074112,114.070595  C46.712429,109.474770 47.294510,105.734886 47.876595,101.995003  C52.410240,88.629631 59.495094,77.021637 71.043823,68.521202  C72.357124,67.554550 73.851311,66.833641 75.619118,66.040390  C72.366470,70.147530 68.364098,73.932327 65.216919,78.329247  C54.067318,93.906342 52.008030,110.866570 58.597595,129.230698 z"></path><path fill="#131313" opacity="1.000000" stroke="none" d="M154.699478,184.802460  C163.656204,175.842545 164.400787,175.940781 172.258484,185.719543  C174.569641,188.595749 174.547226,191.122681 171.905533,193.535202  C169.715958,195.534836 167.352463,197.345810 165.035995,199.202911  C164.667511,199.498337 163.913315,199.890915 163.721115,199.742325  C160.051651,196.905350 156.181549,194.240524 153.006546,190.915894  C152.260025,190.134186 153.900162,187.073257 154.699478,184.802460 z"></path><path fill="#131313" opacity="1.000000" stroke="none" d="M78.831367,178.285645  C85.228775,178.399826 88.176804,183.243408 91.460793,187.468369  C92.018105,188.185364 91.737709,190.311539 91.053261,191.099762  C88.563934,193.966476 85.960281,196.846054 82.918465,199.059326  C81.871826,199.820892 79.415710,198.645355 77.301743,198.177368  C74.856049,195.778717 72.712090,193.557434 70.301132,190.802094  C70.356079,188.845352 70.678040,187.422684 71.000000,186.000000  C73.554192,183.523560 76.108383,181.047104 78.831367,178.285645 z"></path><path fill="#131313" opacity="1.000000" stroke="none" d="M22.257099,178.224335  C20.246365,178.346100 18.026026,178.877014 16.799835,178.006927  C7.441703,171.366440 7.806126,164.960449 17.758718,158.991837  C18.748260,158.398392 20.763678,158.014496 21.388020,158.567093  C24.465925,161.291290 27.378626,164.245773 29.993406,167.413071  C30.519581,168.050430 29.893795,170.286484 29.119307,171.223602  C27.118250,173.644821 24.737225,175.751999 22.257099,178.224335 z"></path><path fill="#131313" opacity="1.000000" stroke="none" d="M177.749847,162.749878  C180.290329,161.078033 183.673889,157.933487 184.659103,158.560059  C188.148834,160.779434 191.008194,164.135330 193.653046,167.425034  C194.237396,168.151855 193.307266,170.606491 192.462448,171.849548  C191.268707,173.606033 189.463104,174.936142 187.994858,176.518829  C185.016235,179.729614 182.069809,179.831696 179.071487,176.573517  C178.621826,176.084900 178.133698,175.631592 177.662552,175.162781  C171.500153,169.031174 171.500122,169.031204 177.749847,162.749878 z"></path><path fill="#131313" opacity="1.000000" stroke="none" d="M52.546394,146.935440  C49.339367,150.469040 46.138470,154.008255 42.915962,157.527664  C42.588333,157.885483 41.895283,158.459091 41.767574,158.369370  C38.307938,155.938049 34.644344,153.698029 31.630178,150.788574  C30.652905,149.845261 31.344713,147.114365 31.404814,145.205292  C31.416475,144.834930 32.042976,144.487045 32.380032,144.123398  C39.624210,136.307571 39.637585,136.322021 47.760918,143.191269  C48.605957,143.905853 49.735130,144.284454 51.272011,145.006760  C52.056496,145.774872 52.301445,146.355148 52.546394,146.935440 z"></path><path fill="#171715" opacity="1.000000" stroke="none" d="M127.999374,195.999283  C125.788902,197.153214 122.464622,199.843613 121.565872,199.191437  C118.042778,196.634903 114.664833,193.375809 112.541328,189.634995  C111.664581,188.090515 114.090385,184.671326 115.359222,181.584061  C117.500214,180.671158 119.296112,180.278961 121.410355,179.945343  C122.584389,179.906052 123.440094,179.808212 124.659256,179.869431  C126.013985,180.354645 127.005241,180.680817 127.996498,181.006989  C128.161133,181.280289 128.364975,181.520279 128.870605,182.208740  C133.368011,189.378357 133.367691,189.378082 128.251999,195.578598  C128.149033,195.703415 128.082199,195.858047 127.998512,195.998779  C127.998512,195.998779 128.000000,196.000000 127.999374,195.999283 z"></path><path fill="#131313" opacity="1.000000" stroke="none" d="M193.192200,125.908875  C193.342834,129.944885 187.959534,137.656204 184.755127,137.578995  C182.807190,137.532059 180.593048,135.907242 179.036560,134.425888  C172.273560,127.989365 173.322113,122.188011 181.985886,118.190056  C183.098892,117.676445 185.250275,118.134262 186.270264,118.952652  C188.717438,120.916161 190.777679,123.361908 193.192200,125.908875 z"></path><path fill="#131313" opacity="1.000000" stroke="none" d="M16.292009,135.738464  C15.085863,134.567841 14.132994,133.645691 13.204189,132.699936  C8.889050,128.306015 8.757368,126.599976 13.151635,122.455826  C15.234540,120.491486 19.048120,117.196892 20.042284,117.809273  C23.710985,120.069077 26.536699,123.701881 29.650940,126.846596  C29.843374,127.040916 29.961216,127.612358 29.827290,127.781494  C27.523821,130.690552 25.495234,133.954224 22.683908,136.258820  C21.508514,137.222366 18.649757,136.132401 16.292009,135.738464 z"></path><path fill="#151514" opacity="1.000000" stroke="none" d="M58.968971,158.000732  C63.327053,161.592331 67.515770,165.494492 71.860390,169.694580  C69.476509,172.357254 66.913956,174.698151 64.403183,177.093307  C61.757881,179.616806 59.170189,179.612091 56.574272,177.056580  C55.629814,176.126846 54.681892,175.200089 53.757500,174.250580  C49.091602,169.457901 49.108475,168.454361 53.729927,163.754852  C55.467846,161.987579 57.112453,160.128525 58.968971,158.000732 z"></path><path fill="#9170EB" opacity="1.000000" stroke="none" d="M124.295792,179.710388  C123.440094,179.808212 122.584389,179.906052 121.406296,179.485016  C121.143951,173.343781 121.204002,167.721420 121.631882,162.050659  C125.969826,160.587814 129.939957,159.173370 133.910080,157.758911  C133.996994,163.459076 134.083908,169.159256 134.195160,175.311859  C132.273865,176.553360 130.328217,177.342422 127.746796,178.436615  C126.172600,179.064621 125.234200,179.387512 124.295792,179.710388 z"></path><path fill="#131313" opacity="1.000000" stroke="none" d="M28.617474,85.521530  C28.779026,91.049942 24.397638,92.892761 21.204203,95.508514  C20.570419,96.027649 18.484949,95.568962 17.631433,94.872154  C15.333137,92.995811 13.149319,90.895996 11.321876,88.569290  C10.641274,87.702744 10.487511,85.497993 11.111752,84.703079  C13.040235,82.247314 15.244470,79.865929 17.791098,78.106094  C18.843786,77.378632 21.513903,77.714905 22.615353,78.601875  C24.875338,80.421783 26.573147,82.939789 28.617474,85.521530 z"></path><path fill="#131313" opacity="1.000000" stroke="none" d="M176.239044,89.750702  C173.481674,87.298943 174.148010,85.426529 176.217285,83.216034  C183.198837,75.757996 186.329849,75.926552 191.863602,84.595512  C192.543106,85.660034 192.915390,87.836494 192.303635,88.638901  C190.417053,91.113449 188.261002,93.634804 185.646881,95.195282  C184.354111,95.966995 181.586594,95.101227 179.929306,94.179703  C178.463303,93.364532 177.611374,91.445053 176.239044,89.750702 z"></path><path fill="#151514" opacity="1.000000" stroke="none" d="M47.546165,101.923416  C47.294510,105.734886 46.712429,109.474770 46.018291,113.609085  C43.687992,114.806030 40.648823,116.927124 39.410282,116.156029  C36.111931,114.102531 33.541405,110.848305 30.815924,107.945274  C30.463785,107.570190 30.717319,106.362099 31.029264,105.699440  C31.367266,104.981430 32.094189,104.442696 32.665257,103.838791  C39.431583,96.683380 39.432259,96.684021 47.546165,101.923416 z"></path><path fill="#131313" opacity="1.000000" stroke="none" d="M47.828163,63.432503  C49.282173,67.909897 47.509911,71.648010 43.072315,74.190956  C39.665203,76.143402 37.522156,74.036972 35.315681,71.841164  C29.947609,66.499023 31.238987,60.252930 38.540611,57.587860  C39.754246,57.144886 41.762802,57.830696 42.961926,58.645504  C44.715164,59.836842 46.068653,61.616470 47.828163,63.432503 z"></path><path fill="#131313" opacity="1.000000" stroke="none" d="M103.071495,55.611713  C102.559937,56.014835 102.116066,56.084194 101.338074,56.102669  C98.957001,53.504570 97.028641,50.848919 94.828033,48.442207  C92.831596,46.258804 92.834427,44.419636 95.012596,42.482422  C95.756905,41.820450 96.422577,41.070591 97.132141,40.368946  C101.515099,36.034950 102.421944,35.997719 106.475250,39.976280  C111.074577,44.490814 111.155487,46.107700 107.207161,50.325066  C105.750099,51.881401 104.489433,53.621605 103.071495,55.611713 z"></path><path fill="#131313" opacity="1.000000" stroke="none" d="M54.541992,49.263424  C50.707008,43.586464 55.371094,41.148312 58.310944,38.362621  C61.492733,35.347683 63.791214,38.073299 65.724174,40.315144  C67.254486,42.089993 69.893364,45.185894 69.361671,46.053146  C67.436485,49.193325 64.742027,52.328152 61.566219,53.992943  C60.388504,54.610310 57.081047,51.164906 54.541992,49.263424 z"></path><path fill="#131313" opacity="1.000000" stroke="none" d="M191.684006,47.751488  C190.990417,48.489876 190.528091,48.969299 190.057800,49.440769  C184.312378,55.200645 179.817413,54.524021 175.935623,47.134510  C175.450317,46.210644 175.645248,44.549656 176.166046,43.571548  C176.842606,42.300896 177.985214,41.043022 179.243088,40.370117  C181.350525,39.242748 184.804077,37.216492 185.755112,37.980019  C188.661942,40.313702 193.493271,42.060680 191.684006,47.751488 z"></path><path fill="#131313" opacity="1.000000" stroke="none" d="M15.794525,39.706932  C20.288904,34.619434 22.890724,38.466881 25.746506,41.237759  C28.742603,44.144787 28.824835,47.107067 25.646946,49.751793  C23.722103,51.353699 20.563198,54.051929 19.371086,53.451847  C16.295038,51.903427 13.476145,49.109528 11.704429,46.129478  C11.135264,45.172142 14.156839,42.080017 15.794525,39.706932 z"></path><path fill="#131313" opacity="1.000000" stroke="none" d="M147.238098,51.260231  C142.595093,55.034264 141.949829,54.657246 136.177170,48.796860  C132.694809,45.261570 135.098068,43.376152 137.406860,41.074154  C142.478195,36.017784 147.325974,36.809494 150.427063,43.323360  C152.096786,46.830624 149.676376,48.895172 147.238098,51.260231 z"></path><path fill="#131313" opacity="1.000000" stroke="none" d="M129.183197,28.180559  C128.741821,28.699856 128.525024,28.949245 128.294083,29.184772  C122.872131,34.714195 117.857307,33.816853 114.574272,26.731165  C113.315666,24.014744 118.450844,17.267199 121.867470,17.148010  C125.752716,17.012474 130.823120,24.251692 129.183197,28.180559 z"></path><path fill="#131313" opacity="1.000000" stroke="none" d="M73.218437,25.714891  C75.114746,22.811596 76.899254,20.080996 79.162491,17.832188  C79.834282,17.164679 81.950043,17.569281 83.222420,18.008760  C84.227570,18.355940 84.971970,19.491257 85.801788,20.307444  C90.941978,25.363203 90.957527,25.548517 86.756485,29.742533  C82.276634,34.214893 80.610657,34.206959 76.076607,29.545195  C75.046364,28.485937 74.213478,27.234728 73.218437,25.714891 z"></path><path fill="#131313" opacity="1.000000" stroke="none" d="M38.026100,32.258522  C36.984909,31.381647 36.236717,30.726398 35.533600,30.025908  C31.018347,25.527515 32.729259,18.117815 38.994705,17.669909  C41.811260,17.468559 45.160583,21.186020 47.743206,23.670910  C48.408875,24.311390 47.580353,27.397772 46.576126,28.691254  C44.607094,31.227432 42.426464,34.185463 38.026100,32.258522 z"></path><path fill="#131313" opacity="1.000000" stroke="none" d="M157.697845,29.196095  C152.657104,24.747343 156.481171,22.198654 159.174591,19.282761  C162.308655,15.889856 164.756195,17.125072 167.464127,19.902958  C172.111710,24.670597 171.091431,30.929274 164.653488,32.828835  C162.904602,33.344852 160.213104,30.666174 157.697845,29.196095 z"></path><path fill="#171715" opacity="1.000000" stroke="none" d="M159.445557,154.900345  C161.915070,150.529526 164.162888,146.487625 166.665298,142.215149  C170.338623,143.502319 174.142960,145.190277 172.235306,149.823059  C169.882553,155.536728 163.550507,158.436890 159.231049,156.142197  C159.023895,155.718842 159.123901,155.474060 159.445557,154.900345 z"></path><path fill="#9775E0" opacity="1.000000" stroke="none" d="M52.739746,147.244202  C52.301445,146.355148 52.056496,145.774872 51.642166,145.027008  C51.514305,144.658112 51.498226,144.461578 51.444599,144.129669  C54.720997,141.847763 57.977356,139.706070 61.803543,137.720337  C63.950226,140.156769 65.527077,142.437225 67.103935,144.717712  C64.159271,144.873886 61.214607,145.030075 57.575722,145.223083  C57.575722,148.320190 57.575722,151.092117 57.506187,154.292999  C55.935471,152.332306 54.434284,149.942627 52.739746,147.244202 z"></path><path fill="#171715" opacity="1.000000" stroke="none" d="M137.183685,175.122742  C141.382721,171.716843 145.879547,168.485168 150.674927,165.097229  C153.152725,167.485519 153.341293,169.844940 150.462448,172.071762  C149.430466,172.869995 148.587646,173.912445 147.656662,174.841614  C142.729248,179.759293 142.729034,179.759079 137.183685,175.122742 z"></path><path fill="#151514" opacity="1.000000" stroke="none" d="M162.435638,74.983406  C163.745697,70.799896 165.412003,66.596550 167.295990,62.136303  C172.549835,64.169296 173.130051,66.395599 169.315536,70.090973  C167.382080,71.964043 164.981369,73.354774 162.435638,74.983406 z"></path><path fill="#101010" opacity="1.000000" stroke="none" d="M128.361572,195.981094  C128.082199,195.858047 128.149033,195.703415 128.251999,195.578598  C133.367691,189.378082 133.368011,189.378357 129.063202,182.346817  C131.184204,184.376846 135.109573,186.775940 135.075333,189.117096  C135.041504,191.429688 131.005142,193.683701 128.361572,195.981094 z"></path><path fill="#101010" opacity="1.000000" stroke="none" d="M70.659531,186.075745  C70.678040,187.422684 70.356079,188.845352 70.017059,190.634018  C66.868912,189.170792 67.823463,187.610443 70.659531,186.075745 z"></path><path fill="#101010" opacity="1.000000" stroke="none" d="M124.659256,179.869431  C125.234200,179.387512 126.172600,179.064621 127.483002,178.658752  C127.891678,179.115692 127.928337,179.655640 127.980751,180.601288  C127.005241,180.680817 126.013985,180.354645 124.659256,179.869431 z"></path><path fill="#F9DF73" opacity="1.000000" stroke="none" d="M121.264053,162.099045  C121.204002,167.721420 121.143951,173.343781 121.087959,179.426468  C119.296112,180.278961 117.500214,180.671158 115.385880,181.169708  C108.949844,180.900650 102.832245,180.525223 96.315674,179.559082  C95.857040,173.350571 95.797371,167.732773 95.809410,161.638977  C95.881119,147.118790 95.881119,133.074631 95.881119,119.081474  C104.698044,119.081474 112.619087,119.081474 121.264053,119.081474  C121.264053,133.604782 121.264053,147.851913 121.264053,162.099045 z"></path><path fill="#9170EB" opacity="1.000000" stroke="none" d="M95.737701,162.114990  C95.797371,167.732773 95.857040,173.350571 95.911514,179.428818  C91.761711,178.641235 87.617088,177.393188 83.128433,175.957611  C82.836601,170.084152 82.888802,164.398239 83.370354,158.346741  C87.779045,159.359100 91.758377,160.737045 95.737701,162.114990 z"></path><path fill="#682F9F" opacity="1.000000" stroke="none" d="M95.809418,161.638977  C91.758377,160.737045 87.779045,159.359100 83.445786,157.868805  C83.091858,153.652664 83.091858,149.548874 83.091858,144.847672  C77.560402,144.847672 72.787804,144.847672 67.559570,144.782684  C65.527077,142.437225 63.950226,140.156769 62.143623,137.574585  C87.837402,119.456932 113.757828,101.636475 139.688217,83.830528  C143.116104,81.476646 146.594772,79.196732 150.360107,76.746613  C153.397919,81.485130 156.125580,86.359604 158.892761,91.587051  C150.949249,91.940041 142.966232,91.940041 134.059082,91.940041  C134.059082,113.783005 134.059082,135.330490 133.984589,157.318451  C129.939957,159.173370 125.969826,160.587814 121.631882,162.050659  C121.264053,147.851913 121.264053,133.604782 121.264053,119.081474  C112.619087,119.081474 104.698044,119.081474 95.881119,119.081474  C95.881119,133.074631 95.881119,147.118790 95.809418,161.638977 z"></path><path fill="#682F9F" opacity="1.000000" stroke="none" d="M159.611053,97.090332  C163.492294,105.220375 162.730820,113.945107 159.948700,122.934753  C159.632935,114.639862 159.585495,106.115814 159.611053,97.090332 z"></path><path fill="#101010" opacity="1.000000" stroke="none" d="M156.491028,77.431137  C155.249878,76.804947 154.470490,76.051056 153.428741,75.099915  C156.080933,73.096825 156.438873,75.323120 156.491028,77.431137 z"></path></svg>